<?xml version="1.0" encoding="UTF-8" standalone="no"?>
<!-- Created with Inkscape (http://www.inkscape.org/) -->

<svg
   xmlns:dc="http://purl.org/dc/elements/1.1/"
   xmlns:cc="http://creativecommons.org/ns#"
   xmlns:rdf="http://www.w3.org/1999/02/22-rdf-syntax-ns#"
   xmlns:svg="http://www.w3.org/2000/svg"
   xmlns="http://www.w3.org/2000/svg"
   xmlns:xlink="http://www.w3.org/1999/xlink"
   xmlns:sodipodi="http://sodipodi.sourceforge.net/DTD/sodipodi-0.dtd"
   xmlns:inkscape="http://www.inkscape.org/namespaces/inkscape"
   width="210mm"
   height="297mm"
   viewBox="0 0 210 297"
   version="1.1"
   id="svg8"
   enable-background="new"
   sodipodi:docname="fz-nmt.svg"
   inkscape:version="0.92.5 (2060ec1f9f, 2020-04-08)"
   inkscape:export-filename="/home/faouzi/Projects/Web/NMT/favicon-32.png"
   inkscape:export-xdpi="3.9527318"
   inkscape:export-ydpi="3.9527318">
  <defs
     id="defs2">
    <filter
       inkscape:collect="always"
       style="color-interpolation-filters:sRGB"
       id="filter3713">
      <feBlend
         inkscape:collect="always"
         mode="darken"
         in2="BackgroundImage"
         id="feBlend3715" />
    </filter>
    <symbol
       id="Buffer">
      <title
         id="title7403">Buffer</title>
      <path
         style="stroke-width:0.26458332"
         inkscape:connector-curvature="0"
         d="M 6.6145833,7.9375 19.84375,13.229167 6.6145833,18.520833 v -5.291666 z"
         id="path7405" />
    </symbol>
    <symbol
       id="Connector">
      <title
         id="title5620">Connector</title>
      <desc
         id="desc5622">Exit to or entry from another part of chart.</desc>
      <circle
         cx="19.84375"
         cy="19.84375"
         r="5.2916665"
         style="stroke-width:0.52916664"
         id="circle5624" />
    </symbol>
    <symbol
       id="MagneticTape">
      <title
         id="title5541">Magnetic Tape</title>
      <desc
         id="desc5543">Magnetic tape storage</desc>
      <circle
         cx="19.84375"
         cy="19.84375"
         r="10.583333"
         style="stroke-width:0.52916664"
         id="circle5545" />
      <path
         inkscape:connector-curvature="0"
         d="M 19.84375,30.427083 H 30.427083"
         style="stroke-width:0.52916664"
         id="path5547" />
    </symbol>
    <symbol
       id="CommunicationLink">
      <title
         id="title5641">Communication Link</title>
      <desc
         id="desc5643">Transcommunication link.</desc>
      <path
         inkscape:connector-curvature="0"
         d="M 17.197917,6.6145833 V 22.489583 l 5.291666,-5.291666 v 15.875"
         style="fill:none;stroke-width:0.52916664"
         id="path5645" />
    </symbol>
    <symbol
       id="Terminal">
      <title
         id="title5578">Terminal/Interrupt</title>
      <desc
         id="desc5580">A terminal point in a flowchart: start, stop, halt, etc.</desc>
      <path
         inkscape:connector-curvature="0"
         d="m 9.2604167,25.135417 a 5.291667,5.291667 0 0 1 0,-10.583334 H 30.427083 a 5.291667,5.291667 0 0 1 0,10.583334 z"
         style="stroke-width:0.52916664"
         id="path5582" />
    </symbol>
    <symbol
       id="Sort">
      <title
         id="title5613">Sort</title>
      <desc
         id="desc5615">Arrange a set of items into sequence. (ISO)</desc>
      <path
         inkscape:connector-curvature="0"
         d="M 9.2604167,19.84375 19.84375,0 30.427083,19.84375 19.84375,39.6875 Z m 0,0 H 30.427083"
         style="stroke-width:0.52916664px"
         id="path5617" />
    </symbol>
    <filter
       inkscape:collect="always"
       style="color-interpolation-filters:sRGB"
       id="filter10069">
      <feBlend
         inkscape:collect="always"
         mode="multiply"
         in2="BackgroundImage"
         id="feBlend10071" />
    </filter>
    <symbol
       viewBox="0 0 24 24"
       id="ic_fitness_center_24px">
      <path
         style="stroke-width:1"
         inkscape:connector-curvature="0"
         d="M 5.4424792,3.9317083 5.8208333,3.5533542 5.4424792,3.175 4.4979167,4.1195625 2.2304375,1.8520833 3.175,0.90752083 2.7966458,0.52916667 2.4182917,0.90752083 2.0399375,0.52916667 1.4737292,1.095375 1.095375,0.71702083 0.71702083,1.095375 1.095375,1.4737292 0.52916667,2.0399375 0.90752083,2.4182917 0.52916667,2.7966458 0.90752083,3.175 1.8520833,2.2304375 4.1195625,4.4979167 3.175,5.4424792 3.5533542,5.8208333 3.9317083,5.4424792 4.3100625,5.8208333 4.8762708,5.254625 5.254625,5.6329792 5.6329792,5.254625 5.254625,4.8762708 5.8208333,4.3100625 Z"
         id="path174216" />
    </symbol>
    <symbol
       viewBox="0 0 24 24"
       id="ic_golf_course_24px">
      <circle
         style="stroke-width:1"
         cx="5.1593752"
         cy="5.1593752"
         r="0.39687499"
         id="circle174222" />
      <path
         style="stroke-width:1"
         inkscape:connector-curvature="0"
         d="M 4.4979167,1.5663333 2.38125,0.52916667 V 5.2916667 H 1.8520833 V 4.8339375 c -0.4736041,0.092604 -0.79375,0.2619375 -0.79375,0.4577292 0,0.2910416 0.7117292,0.5291666 1.5875,0.5291666 0.8757709,0 1.5875,-0.238125 1.5875,-0.5291666 0,-0.2619375 -0.5715,-0.4788959 -1.3229166,-0.5212292 V 2.3759583 Z"
         id="path174224" />
    </symbol>
    <symbol
       viewBox="0 0 24 24"
       id="ic_room_service_24px">
      <path
         style="stroke-width:1"
         inkscape:connector-curvature="0"
         d="M 0.52916667,4.4979167 H 5.8208333 V 5.0270833 H 0.52916667 Z M 3.6618333,2.0611042 A 0.53075417,0.53075417 0 0 0 3.175,1.3229167 0.53075417,0.53075417 0 0 0 2.6881667,2.0611042 C 1.6536458,2.2754167 0.8651875,3.1564792 0.79375,4.2333333 h 4.7625 C 5.4848125,3.1564792 4.6963542,2.2754167 3.6618333,2.0611042 Z"
         id="path174240" />
    </symbol>
    <symbol
       viewBox="0 0 24 24"
       id="ic_public_24px">
      <path
         style="stroke-width:1"
         inkscape:connector-curvature="0"
         d="M 3.175,0.52916667 C 1.7145,0.52916667 0.52916667,1.7145 0.52916667,3.175 0.52916667,4.6355 1.7145,5.8208333 3.175,5.8208333 4.6355,5.8208333 5.8208333,4.6355 5.8208333,3.175 5.8208333,1.7145 4.6355,0.52916667 3.175,0.52916667 Z M 2.9104167,5.2731458 C 1.8653125,5.1435 1.0583333,4.2545 1.0583333,3.175 c 0,-0.1640417 0.021167,-0.3201458 0.055563,-0.4736042 L 2.38125,3.96875 V 4.2333333 C 2.38125,4.524375 2.619375,4.7625 2.9104167,4.7625 Z M 4.7360417,4.6011042 C 4.66725,4.3867917 4.4714583,4.2333333 4.2333333,4.2333333 H 3.96875 v -0.79375 C 3.96875,3.2940625 3.8496875,3.175 3.7041667,3.175 h -1.5875 V 2.6458333 h 0.5291666 c 0.1455209,0 0.2645834,-0.1190625 0.2645834,-0.2645833 V 1.8520833 h 0.5291666 c 0.2910417,0 0.5291667,-0.238125 0.5291667,-0.5291666 V 1.2144375 C 4.7439792,1.5292917 5.2916667,2.2886458 5.2916667,3.175 c 0,0.5503333 -0.2116667,1.0503958 -0.555625,1.4261042 z"
         id="path173647" />
    </symbol>
    <symbol
       viewBox="0 0 64 64"
       id="emoji-1f1f0-1f1f2">
      <title
         id="title118010">1f1f0-1f1f2</title>
      <path
         style="fill:#428bc1;stroke-width:1"
         inkscape:connector-curvature="0"
         d="m 2.9120042,12.7 v 1.429808 c 1.4313958,1.405202 3.3903708,2.274359 5.5546625,2.274359 2.8268083,0 5.3067483,-1.479021 6.7132733,-3.704167 z"
         id="path118012" />
      <path
         style="fill:#ed4c5c;stroke-width:1"
         inkscape:connector-curvature="0"
         d="M 2.9120042,8.4666667 V 12.7 H 15.17994 c 0.77417,-1.225285 1.224227,-2.67626 1.224227,-4.2333333 z"
         id="path118014" />
      <path
         style="fill:#ffffff;stroke-width:1"
         inkscape:connector-curvature="0"
         d="M 2.9120042,8.4666667 H 16.404167 c 0,-1.557073 -0.450057,-3.0077834 -1.224227,-4.2333334 H 2.9120042 Z"
         id="path118016" />
      <path
         style="fill:#ffce31;stroke-width:1"
         inkscape:connector-curvature="0"
         d="M 2.9120042,4.2333333 H 15.17994 C 13.773415,2.0081875 11.293475,0.52916667 8.4666667,0.52916667 6.302375,0.52916667 4.3434,1.3983229 2.9120042,2.803525 Z"
         id="path118018" />
      <path
         style="fill:#75a843;stroke-width:1"
         inkscape:connector-curvature="0"
         d="M 2.9120042,2.7987625 C 1.4422437,4.2394187 0.52916667,6.2460187 0.52916667,8.4666667 c 0,2.2206483 0.91307703,4.2272483 2.38283753,5.6679043 l 5.667375,-5.6679043 z"
         id="path118020" />
      <g
         style="fill:#f9f9f9"
         id="g118032">
        <path
           style="stroke-width:1"
           inkscape:connector-curvature="0"
           d="M 4.7625,11.059848 C 3.5549417,10.814315 2.6458333,9.7467208 2.6458333,8.4666667 2.6458333,7.1866125 3.5549417,6.1192833 4.7625,5.87375 4.5915792,5.8393542 4.4148375,5.8208333 4.2333333,5.8208333 2.7720396,5.8208333 1.5875,7.0056375 1.5875,8.4666667 c 0,1.4612937 1.1845396,2.6458333 2.6458333,2.6458333 0.1815042,0 0.3582459,-0.01852 0.5291667,-0.05265"
           id="path118022" />
        <path
           style="stroke-width:1"
           inkscape:connector-curvature="0"
           d="M 4.435475,9.525 4.7625,9.2762917 5.089525,9.525 4.9662292,9.1215104 5.2916667,8.8635417 H 4.8881771 L 4.7625,8.4666667 4.6405271,8.8635417 H 4.2333333 l 0.3254375,0.2579687 z"
           id="path118024" />
        <path
           style="stroke-width:1"
           inkscape:connector-curvature="0"
           d="M 4.435475,10.583333 4.7625,10.334625 5.089525,10.583333 4.9662292,10.179844 5.2916667,9.921875 H 4.8881771 L 4.7625,9.525 4.6405271,9.921875 H 4.2333333 l 0.3254375,0.257969 z"
           id="path118026" />
        <path
           style="stroke-width:1"
           inkscape:connector-curvature="0"
           d="M 4.435475,7.4083333 4.7625,7.159625 5.089525,7.4083333 4.9662292,7.0045792 5.2916667,6.746875 H 4.8881771 L 4.7625,6.35 4.6405271,6.746875 H 4.2333333 l 0.3254375,0.2577042 z"
           id="path118028" />
        <path
           style="stroke-width:1"
           inkscape:connector-curvature="0"
           d="M 4.435475,8.4666667 4.7625,8.2179583 5.089525,8.4666667 4.9662292,8.0629125 5.2916667,7.8052083 H 4.8881771 L 4.7625,7.4083333 4.6405271,7.8052083 H 4.2333333 l 0.3254375,0.2577042 z"
           id="path118030" />
      </g>
    </symbol>
    <symbol
       viewBox="0 0 64 64"
       id="emoji-1f30d">
      <title
         id="title122979">1f30d</title>
      <path
         style="fill:#008db3;stroke-width:1"
         inkscape:connector-curvature="0"
         d="m 15.452725,6.0108042 0.435504,5.2773788 c -1.137444,2.99085 -4.031456,5.115984 -7.4215623,5.115984 -4.3836167,0 -7.93750003,-3.553884 -7.93750003,-7.9375003 0,-4.3836167 3.55388333,-7.93750003 7.93750003,-7.93750003 1.5893523,0 3.0696953,0.46725416 4.3108563,1.27158753 z"
         id="path122981" />
      <g
         style="fill:#ffc942"
         id="g122991">
        <path
           style="stroke-width:1"
           inkscape:connector-curvature="0"
           d="m 12.776729,1.7996958 c 0.09155,0.2532063 0.163248,0.5662084 -0.116152,0.4198938 -0.4445,-0.2330979 -1.037696,-0.5130271 -0.846931,-0.3307292 0.190764,0.1822979 0.264583,0.4053417 -0.03678,0.3683 C 11.47445,2.2195896 10.945283,2.1560896 10.713244,2.4947562 10.480146,2.8336875 10.16291,2.7701875 10.078244,2.8971875 9.9935771,3.0239229 9.8663125,3.5747854 9.6332146,3.4054521 9.4006458,3.2358542 8.9132833,2.6376312 9.3159792,2.8096104 9.7181458,2.9815896 10.16291,2.7913542 9.8028125,2.3677562 9.4427146,1.9438937 9.0617146,2.092325 8.9135479,1.8594917 8.7651167,1.6263937 8.2147833,1.330325 7.8335188,1.9229917 7.4522542,2.5156583 7.1075021,3.2787167 6.8987458,3.4374667 6.6899896,3.5959521 6.2454896,3.89255 6.308725,4.1253833 6.372225,4.3584812 6.3933917,4.9302458 6.6264896,4.7606479 6.8595875,4.59105 7.0077542,4.5278146 7.0926854,4.6759812 c 0.084667,0.1484313 0.0635,0.487098 0.2330979,0.4659313 0,0 0.3807354,-0.2751667 0.4021667,-0.5082646 C 7.749117,4.4008146 7.4525187,4.2526479 7.685617,3.9137167 7.9187149,3.5747854 8.363744,2.9165021 8.2576461,3.2459083 8.1518128,3.5747854 7.9187149,4.0396583 8.0880482,4.2526479 c 0.1693334,0.2129896 1.0800292,-0.0635 0.6561667,0.1484313 -0.4233334,0.2116666 -0.635,0.3598333 -0.7199313,0.635 C 7.9396166,5.3115104 7.8758524,5.5234417 7.6641857,5.4173437 7.452519,5.3112458 7.198519,5.3538437 7.071519,5.3538437 c -0.127,0 -0.1695979,-0.4870979 -0.3389312,-0.381 -0.1695979,0.1055688 0.0635,0.4577292 -0.127,0.4722813 C 6.4148229,5.4599417 6.3936562,5.6713437 6.1822542,5.8409417 5.9703229,6.0105396 5.673725,6.3068729 5.4829604,6.3492062 c -0.1907646,0.042333 0.2965979,0.2542646 0.2119313,0.487098 -0.084667,0.2330979 -0.508,0.2119312 -0.6561667,0.2330979 -0.1481667,0.021167 -0.021167,0.3386666 -0.1058333,0.5291666 -0.084667,0.1905 0.084667,0.381 0.338402,0.381 0.2542646,0 0.5291667,-0.0635 0.5508625,-0.2965979 0.021167,-0.2328333 0.2754313,-0.635 0.4450292,-0.5505979 0.1690688,0.084667 0.5442479,-0.1481667 0.6320896,-0.020902 0.087842,0.1267354 0.574675,0.5715 0.5318125,0.635 -0.042863,0.0635 -0.2960688,0.1907646 -0.1902354,0.2330979 0,0 0.067204,0.13335 0.1378479,0.1050396 0.070644,-0.02831 0.1907646,-0.3741208 0.2542646,-0.4164541 0.0635,-0.042333 0.084667,-0.2259542 -0.035719,-0.3106209 -0.1198562,-0.084667 -0.5715,-0.4024312 -0.4728104,-0.5505979 0.09869,-0.1481667 0.3529542,0.1833563 0.4516438,0.2963333 0.099219,0.1132417 0.2542645,0.233098 0.2614083,0.4799542 0.00714,0.2468563 0.1484312,0.2330979 0.1695979,0.3529542 0.021167,0.1201208 0.070379,0.1703916 0.2119313,0.1521354 C 8.3600396,8.0703208 8.4163958,7.7597 8.3388729,7.6821771 8.26135,7.6043896 8.26135,7.4347917 8.4092521,7.4347917 c 0.1484312,0 0.3317875,-0.1267355 0.3389312,-0.204523 0.00714,-0.077523 0.1484313,-0.557477 0.2542646,-0.557477 0.1058333,0 0.1762125,0.1905 0.2185458,0.2894541 0.042333,0.09869 0.3106209,-0.077787 0.2682875,-0.1764771 C 9.4469479,6.6868146 9.5104479,6.651625 9.5885,6.651625 c 0.077523,0 0.014023,0.2045229 0.091546,0.2682875 0.078052,0.0635 0.437621,0.2965979 0.3177646,0.4164542 C 9.8779542,7.4562229 9.6800458,7.3858437 9.5461667,7.2797458 9.4117583,7.1741771 9.0662125,7.2374125 8.9741375,7.3432458 8.8825917,7.4490792 8.8045396,7.4985562 8.6494937,7.5057 c -0.155575,0.00688 -0.1344083,0.2894542 0,0.4093104 0.1338792,0.1201208 0.3177646,0.014288 0.4516438,0.098954 0.1344083,0.084667 0.3458104,-0.1129771 0.3812646,0.021167 0.03519,0.1341438 -0.021167,0.5363105 -0.155575,0.550598 C 9.1929479,8.5997521 8.7754354,8.6987062 8.4685187,8.5574187 8.1621312,8.4163958 7.8660625,8.3600396 7.8374875,8.5079417 7.8091771,8.6563729 7.8022979,8.7640583 7.5903667,8.6325604 7.3784354,8.5010625 7.1950792,8.423275 7.0612,8.423275 c -0.1338792,0 -0.1410229,-0.2259542 -0.1127125,-0.4235979 0.027781,-0.1976438 -0.3251729,-0.127 -0.5291667,-0.077523 -0.2045229,0.049477 -0.635,0.1976437 -0.8892646,0.1976437 -0.2542645,0 -0.3812645,0.056356 -0.4238625,0.1693333 -0.042598,0.1129771 -0.2894541,0.1129771 -0.2965979,0.3249084 -0.00661,0.2119312 0.035719,0.2733146 -0.1902354,0.3624791 -0.2259542,0.089429 -0.2965979,0.4987396 -0.4098396,0.6117167 -0.1127125,0.1132417 0.1132417,0.3812646 0,0.5225517 -0.1127125,0.141288 -0.2201333,0.508265 -0.032544,0.592932 0.1881187,0.08467 0.371475,0.437621 0.4564062,0.578908 0.084667,0.141288 0.3669771,0.254265 0.6495521,0.211931 0.2820458,-0.04233 0.8329083,-0.211931 1.1011958,-0.08467 0.2682875,0.127264 0.5926667,0.09895 0.4376209,0.367241 -0.155575,0.268288 0.070379,0.607219 0.2682875,0.804863 0.1973791,0.197644 0.127,0.649287 0.027781,0.804598 -0.09869,0.15531 -0.070379,0.423598 0.02831,0.564885 0.09869,0.141023 0.169598,0.437621 0.169598,0.564886 0,0.126735 0.2119312,0.366977 0.2397125,0.621241 0.02831,0.254 -0.1550459,0.550598 0.084667,0.550598 0.2402417,0 0.8474604,0.02805 0.8897938,-0.08467 0.042333,-0.112712 0.5363104,-0.522552 0.663575,-0.720195 0.1272646,-0.197644 0.4093104,-0.508265 0.3246437,-0.691621 -0.084667,-0.183621 0.014023,-0.338931 0.282575,-0.437621 0.2682867,-0.09895 0.2537347,-0.847196 0.1267354,-1.04484 -0.1267354,-0.197643 0.1132413,-0.635264 0.4098393,-0.776552 0.296069,-0.141023 0.987954,-1.341173 0.762264,-1.242218 -0.225954,0.09869 -0.691884,0.183356 -0.846931,0.0844 -0.155575,-0.09869 -1.0734139,-1.7033879 -0.9461493,-1.7975796 0.1272645,-0.094192 0.8749763,1.4438316 1.0025053,1.6422686 0.12753,0.198702 1.383771,-0.564621 1.525059,-0.7482415 0.141024,-0.1833563 -0.08467,-0.381 -0.169598,-0.381 -0.08493,0 -0.366977,-0.1976438 -0.437621,-0.084667 -0.07064,0.1129771 -0.621242,-0.7625292 -0.423863,-0.6778625 0.197909,0.084667 0.593196,0.3529542 0.94615,0.5505979 0.352955,0.1976438 0.790575,-0.1410229 1.04484,0.2542646 0.253735,0.3952875 0.423333,0.127 0.40931,0.3249083 -0.01402,0.1979092 0.324644,0.9458862 0.437621,1.1858632 0.112713,0.239712 0.352954,-0.09895 0.381265,-0.381265 0.02778,-0.28231 0.592667,-0.7339544 0.790046,-0.8892648 0.197908,-0.1553104 0.564885,0.070644 0.621771,0.3952878 0.05636,0.324644 0.324643,-0.05662 0.324643,0.197644 0,0.254 -0.04604,0.617537 0.132292,0.922866 0.33311,-0.877622 0.515408,-1.8287999 0.515408,-2.8223103 0,-2.7950584 -1.444888,-5.2530375 -3.62823,-6.6675"
           id="path122983" />
        <path
           style="stroke-width:1"
           inkscape:connector-curvature="0"
           d="m 4.3373146,2.8125208 c -0.1484313,0.04101 -0.3172354,0.2328334 -0.5291667,0.127 C 3.5962167,2.8336875 3.1519812,2.9815896 3.4268833,3.2358542 3.7023146,3.4901187 3.5938354,3.6594521 3.8388396,3.6806187 4.0838437,3.7017854 4.2740792,3.3419521 4.4434125,3.3631188 4.6127458,3.3842854 4.5124687,2.7641021 4.3373146,2.8125208"
           id="path122985" />
        <path
           style="stroke-width:1"
           inkscape:connector-curvature="0"
           d="m 10.77251,13.160375 c -0.179916,0.01984 -0.141552,0.395287 -0.338931,0.437621 -0.197908,0.04233 -0.02937,0.211666 -0.120385,0.352954 -0.09155,0.141023 -0.134938,0.437621 0,0.621242 0.134408,0.183356 0.191294,0.197643 0.332316,-0.09869 0.141023,-0.296598 0.507736,-1.35546 0.127,-1.313127"
           id="path122987" />
        <path
           style="stroke-width:1"
           inkscape:connector-curvature="0"
           d="m 5.4636458,4.5693542 c -0.075935,-0.00476 -0.155575,0.049477 -0.2402416,0.0635 -0.084137,0.014288 -0.1338792,0.1198562 -0.141023,0.239977 -0.00661,0.1198563 0.2119313,0.169598 0.127,0.2471209 -0.084667,0.077788 -0.5013854,0.1553104 -0.4376208,0.2823104 0.063765,0.127 0.1410229,0.2471208 0.056356,0.381 -0.084137,0.1341437 0.084667,0.1484312 0.2330979,0.098954 C 5.2096458,5.8327396 5.3154792,5.6491187 5.3014562,5.5292625 5.2869042,5.4091417 5.5274104,5.3808312 5.4636458,5.4657625 5.3998812,5.5506937 5.2591229,5.83565 5.3292375,5.9084104 5.4001458,5.9809063 5.1106917,6.11505 5.216525,6.1647917 5.3223583,6.2142688 5.6004354,5.9528604 5.7740021,5.9951938 5.9475687,6.0375271 5.9925479,5.9528604 6.0137146,5.8044292 6.0348812,5.6562625 5.7951687,5.451475 5.7105021,5.2821417 5.6261,5.1128083 5.6967437,4.5833771 5.4636458,4.5693542"
           id="path122989" />
      </g>
    </symbol>
    <symbol
       id="polldaddy">
      <title
         id="title112002">polldaddy</title>
      <path
         style="stroke-width:1"
         inkscape:connector-curvature="0"
         d="m 2.1166667,0.26458333 c -1.0210271,0 -1.85208337,0.83105627 -1.85208337,1.85208337 0,1.0212916 0.83105627,1.8520833 1.85208337,1.8520833 1.0212916,0 1.8520833,-0.8307917 1.8520833,-1.8520833 0,-1.0210271 -0.8307917,-1.85208337 -1.8520833,-1.85208337 z m 0.1836208,0.31115 C 2.7376437,0.59134373 3.1628292,0.80750833 3.44805,1.1564937 3.500438,1.2184067 3.5483271,1.2848167 3.5914542,1.3541375 3.3271354,1.02235 2.9196771,0.809625 2.4627417,0.809625 c -0.4365625,0 -0.8273521,0.1939396 -1.0919355,0.5005917 -0.00106,5.291e-4 -0.00185,0.00185 -0.00291,0.00265 -0.00953,0.00979 -0.018785,0.019579 -0.02831,0.029369 -0.00185,0.00212 -0.0037,0.00397 -0.00582,0.00609 -0.187325,0.2029354 -0.3024188,0.4738687 -0.3024188,0.7712604 0,0.6273271 0.5103813,1.1377083 1.1377084,1.1377083 0.1055687,0 0.2079625,-0.015081 0.3053291,-0.042069 C 2.1320125,3.3705271 1.7092083,3.3535937 1.3768917,3.1551562 1.0358437,2.9535437 0.78951667,2.5788937 0.74109792,2.1711708 0.68659375,1.7629187 0.83052708,1.3290021 1.1332104,1.0308167 1.4303375,0.72760417 1.863725,0.5540375 2.3002875,0.57573333 Z M 2.9249687,2.1534437 C 2.9159729,1.7785292 2.6310167,1.4332479 2.2685375,1.3803312 1.9116146,1.3168312 1.54305,1.5390812 1.4440958,1.87325 1.393825,2.0367625 1.4089062,2.2153562 1.4811375,2.3645812 1.5533687,2.5127479 1.6787812,2.6333979 1.831975,2.6902833 2.1402146,2.8114625 2.5042812,2.6402771 2.6048229,2.3452667 2.714625,2.0526375 2.5315333,1.711325 2.2455187,1.6459729 1.9640021,1.5705667 1.6599958,1.7862021 1.6520583,2.0613687 1.6425333,2.193925 1.6988896,2.3246292 1.7914937,2.4092958 1.8843625,2.4974021 2.0193,2.5328562 2.1380979,2.5071917 2.2576896,2.4836437 2.3603479,2.4040042 2.4100896,2.2971125 2.4600958,2.1904854 2.4505708,2.0645437 2.39395,1.9698229 2.3389167,1.8748375 2.2349354,1.8100146 2.1293667,1.806575 2.0235333,1.8012833 1.9219333,1.8520833 1.8631958,1.9322521 1.8028708,2.01295 1.7928167,2.1222229 1.8298583,2.2079479 c 7.938e-4,0.00212 0.00185,0.00397 0.00291,0.00556 C 1.8684873,2.3309829 1.9761725,2.417237 2.1044954,2.420412 2.0436414,2.427552 1.9796121,2.416972 1.9248433,2.386545 1.8385893,2.341301 1.7750892,2.2481679 1.7594788,2.1476262 1.7441328,2.04682 1.7761478,1.9370179 1.8518188,1.86267 1.9256378,1.786205 2.0349105,1.74202 2.144448,1.7504866 c 0.1098021,0.00741 0.2145771,0.064823 0.2809875,0.1590146 0.067469,0.09181 0.094456,0.2140479 0.070908,0.3283479 C 2.4749125,2.352675 2.3984479,2.4553333 2.2939375,2.5183042 2.19075,2.581275 2.0597812,2.6024417 1.9393958,2.5712208 1.8190104,2.5413229 1.7123833,2.4590375 1.6459729,2.3479125 1.5795625,2.2381104 1.5554854,2.1005271 1.5830021,1.9722042 1.6094604,1.8425583 1.6891,1.7274646 1.8007542,1.6475604 2.0216812,1.4840479 2.3666979,1.5083896 2.5611667,1.7237604 2.7659542,1.9274896 2.8069646,2.2844125 2.6363083,2.5333854 2.4738542,2.7881792 2.1288375,2.9196771 1.8261542,2.8286604 1.5226771,2.7455812 1.2866687,2.4436917 1.2647083,2.1150792 1.2517437,1.9513021 1.2887854,1.7822333 1.3726583,1.6377708 1.4554729,1.4935729 1.5869708,1.3723937 1.7383125,1.2927542 c 0.3037417,-0.1629834 0.7067021,-0.1375834 0.9906,0.078581 0.231775,0.1711854 0.3857625,0.4482042 0.4140729,0.7424208 0,0.00212 2.646e-4,0.00397 2.646e-4,0.00556 0,0.5371042 -0.4368271,0.9741958 -0.9741958,0.9741958 -0.1272646,0 -0.248973,-0.024871 -0.3606271,-0.069585 0.1603375,0.038361 0.3291416,0.03254 0.4839229,-0.014556 C 2.4786167,2.9530146 2.6431875,2.8376562 2.7580167,2.6849917 2.8725812,2.5315333 2.9339646,2.3402396 2.9249687,2.1534437 Z m -0.808302,1.651 c -0.9305396,0 -1.68751253,-0.7569729 -1.68751253,-1.687777 0,-0.8868834 0.68765203,-1.61554587 1.55786663,-1.68195628 -0.024606,0.00291 -0.049213,0.006615 -0.073554,0.0111125 C 1.4237229,0.52969583 0.98425,0.83581875 0.74295,1.2623271 0.50059167,1.6885708 0.48524583,2.2235583 0.6873875,2.6564167 0.88291458,3.0898042 1.2898437,3.4260896 1.7570979,3.4996437 2.2195896,3.5811354 2.7077458,3.4102146 3.0141333,3.0734 3.3324271,2.7405542 3.4342917,2.2346708 3.2893,1.8147771 3.18135,1.47955 2.9233812,1.1977687 2.6040292,1.0654771 c 0.6328833,0.1100666 1.1435291,0.5966354 1.1435291,1.2559771 0,0.186002 -0.044715,0.3741208 -0.1217083,0.549275 C 3.3485667,3.4234437 2.7765375,3.8044437 2.1166667,3.8044437 Z"
         id="path112004" />
    </symbol>
    <symbol
       id="activity">
      <title
         id="title111523">Activity</title>
      <path
         style="stroke-width:1"
         inkscape:connector-curvature="0"
         d="M 2.9982583,1.349375 2.6458333,2.054225 2.1166667,0.99589167 1.5875,2.054225 1.3229167,1.5250583 0.79375,2.5833917 0.64743542,2.2907625 0.17409583,2.5275646 0.79375,3.7666083 1.3229167,2.708275 1.5875,3.2374417 2.1166667,2.1791083 2.6458333,3.2374417 3.4723917,1.5840604 c -0.011113,7.938e-4 -0.021431,0.00344 -0.032808,0.00344 -0.1844146,0 -0.3468687,-0.094721 -0.4413254,-0.2381254 z m 0.441325,-0.68791667 c -0.2193396,0 -0.396875,0.1778 -0.396875,0.39687497 0,0.219075 0.1775354,0.396875 0.396875,0.396875 0.2193396,0 0.396875,-0.1778 0.396875,-0.396875 0,-0.21907497 -0.1775354,-0.39687497 -0.396875,-0.39687497 z"
         id="path111525" />
    </symbol>
    <symbol
       viewBox="0 0 24 24"
       id="ic_format_size_24px">
      <path
         style="stroke-width:1"
         inkscape:connector-curvature="0"
         d="m 2.38125,1.0583333 v 0.79375 h 1.3229167 v 3.175 h 0.79375 v -3.175 h 1.3229166 v -0.79375 z M 0.79375,3.175 H 1.5875 V 5.0270833 H 2.38125 V 3.175 H 3.175 V 2.38125 H 0.79375 Z"
         id="path109729" />
    </symbol>
    <symbol
       viewBox="0 0 24 24"
       id="ic_title_24px">
      <path
         style="stroke-width:1"
         inkscape:connector-curvature="0"
         d="m 1.3229167,1.0583333 v 0.79375 H 2.778125 v 3.175 h 0.79375 v -3.175 h 1.4552083 v -0.79375 z"
         id="path109816" />
    </symbol>
    <symbol
       viewBox="0 0 24 24"
       id="ic_pie_chart_24px">
      <path
         style="stroke-width:1"
         inkscape:connector-curvature="0"
         d="M 2.9104167,0.52916667 V 5.8208333 C 1.5689792,5.6885417 0.52916667,4.5534792 0.52916667,3.175 c 0,-1.3784792 1.03981253,-2.51354167 2.38125003,-2.64583333 z m 0.5371041,0 V 2.9077708 H 5.8208333 C 5.6964792,1.6536458 4.699,0.65352083 3.4475208,0.52916667 Z m 0,2.91306253 V 5.8208333 C 4.7016458,5.6964792 5.6964792,4.6963542 5.8208333,3.4422292 Z"
         id="path109792" />
    </symbol>
    <symbol
       viewBox="0 0 24 24"
       id="ic_attach_file_24px">
      <path
         style="stroke-width:1"
         inkscape:connector-curvature="0"
         d="m 4.365625,1.5875 v 3.0427083 c 0,0.5847292 -0.4736042,1.0583334 -1.0583333,1.0583334 -0.5847292,0 -1.0583334,-0.4736042 -1.0583334,-1.0583334 V 1.3229167 a 0.66145835,0.66145835 0 0 1 1.3229167,0 v 2.778125 c 0,0.1455208 -0.1190625,0.2645833 -0.2645833,0.2645833 -0.1455209,0 -0.2645834,-0.1190625 -0.2645834,-0.2645833 V 1.5875 h -0.396875 v 2.5135417 a 0.66145835,0.66145835 0 0 0 1.3229167,0 v -2.778125 c 0,-0.5847292 -0.4736042,-1.05833337 -1.0583333,-1.05833337 -0.5847292,0 -1.0583334,0.47360417 -1.0583334,1.05833337 v 3.3072916 c 0,0.8043334 0.650875,1.4552084 1.4552084,1.4552084 0.8043333,0 1.4552083,-0.650875 1.4552083,-1.4552084 V 1.5875 Z"
         id="path109617" />
    </symbol>
    <symbol
       viewBox="0 0 24 24"
       id="ic_bubble_chart_24px">
      <circle
         style="stroke-width:1"
         cx="1.905"
         cy="3.8099999"
         r="0.84666669"
         id="circle109661" />
      <circle
         style="stroke-width:1"
         cx="3.9158335"
         cy="4.7624998"
         r="0.52916664"
         id="circle109663" />
      <circle
         style="stroke-width:1"
         cx="4.0216665"
         cy="2.3283334"
         r="1.2700001"
         id="circle109665" />
    </symbol>
    <symbol
       viewBox="0 0 24 24"
       id="ic_more_horiz_24px">
      <path
         style="stroke-width:1"
         inkscape:connector-curvature="0"
         d="m 1.5875,2.6458333 c -0.2910417,0 -0.5291667,0.238125 -0.5291667,0.5291667 0,0.2910417 0.238125,0.5291667 0.5291667,0.5291667 0.2910417,0 0.5291667,-0.238125 0.5291667,-0.5291667 0,-0.2910417 -0.238125,-0.5291667 -0.5291667,-0.5291667 z m 3.175,0 c -0.2910417,0 -0.5291667,0.238125 -0.5291667,0.5291667 0,0.2910417 0.238125,0.5291667 0.5291667,0.5291667 0.2910417,0 0.5291667,-0.238125 0.5291667,-0.5291667 0,-0.2910417 -0.238125,-0.5291667 -0.5291667,-0.5291667 z m -1.5875,0 c -0.2910417,0 -0.5291667,0.238125 -0.5291667,0.5291667 0,0.2910417 0.238125,0.5291667 0.5291667,0.5291667 0.2910417,0 0.5291667,-0.238125 0.5291667,-0.5291667 0,-0.2910417 -0.238125,-0.5291667 -0.5291667,-0.5291667 z"
         id="path105164" />
    </symbol>
    <symbol
       viewBox="0 0 24 24"
       id="ic_remove_24px">
      <path
         style="stroke-width:1"
         inkscape:connector-curvature="0"
         d="M 5.0270833,3.4395833 H 1.3229167 V 2.9104167 h 3.7041666 z"
         id="path103488" />
    </symbol>
    <symbol
       viewBox="0 0 24 24"
       id="ic_font_download_24px">
      <path
         style="stroke-width:1"
         inkscape:connector-curvature="0"
         d="m 2.6273125,3.571875 h 1.095375 L 3.175,2.111375 Z M 5.2916667,0.52916667 H 1.0583333 c -0.29104163,0 -0.52916663,0.238125 -0.52916663,0.52916663 v 4.2333334 c 0,0.2910416 0.238125,0.5291666 0.52916663,0.5291666 h 4.2333334 c 0.2910416,0 0.5291666,-0.238125 0.5291666,-0.5291666 V 1.0583333 c 0,-0.29104163 -0.238125,-0.52916663 -0.5291666,-0.52916663 z M 4.2201042,4.8947917 3.9184792,4.1010417 h -1.49225 l -0.2963334,0.79375 H 1.5769167 L 2.9289375,1.4552083 h 0.492125 l 1.3520208,3.4395834 z"
         id="path103455" />
    </symbol>
    <symbol
       viewBox="0 0 24 24"
       id="ic_sort_24px">
      <path
         style="stroke-width:1"
         inkscape:connector-curvature="0"
         d="m 0.79375,4.7625 h 1.5875 V 4.2333333 h -1.5875 z m 0,-3.175 v 0.5291667 h 4.7625 V 1.5875 Z m 0,1.8520833 h 3.175 V 2.9104167 h -3.175 z"
         id="path103515" />
    </symbol>
    <symbol
       viewBox="0 0 24 24"
       id="ic_create_24px">
      <path
         style="stroke-width:1"
         inkscape:connector-curvature="0"
         d="M 0.79375,4.5640625 V 5.55625 H 1.7859375 L 4.7122292,2.6299583 3.7200417,1.6377708 Z M 5.4795208,1.8626667 a 0.263525,0.263525 0 0 0 0,-0.3730625 L 4.8603958,0.87047917 a 0.263525,0.263525 0 0 0 -0.3730625,0 L 4.0031458,1.3546667 4.9953333,2.3468542 Z"
         id="path103440" />
    </symbol>
    <symbol
       viewBox="0 0 24 24"
       id="ic_select_all_24px">
      <path
         style="stroke-width:1"
         inkscape:connector-curvature="0"
         d="M 0.79375,1.3229167 H 1.3229167 V 0.79375 C 1.031875,0.79375 0.79375,1.031875 0.79375,1.3229167 Z m 0,2.1166666 H 1.3229167 V 2.9104167 H 0.79375 Z M 1.8520833,5.55625 H 2.38125 V 5.0270833 H 1.8520833 Z M 0.79375,2.38125 H 1.3229167 V 1.8520833 H 0.79375 Z M 3.4395833,0.79375 H 2.9104167 v 0.5291667 h 0.5291666 z m 1.5875,0 V 1.3229167 H 5.55625 C 5.55625,1.031875 5.318125,0.79375 5.0270833,0.79375 Z M 1.3229167,5.55625 V 5.0270833 H 0.79375 c 0,0.2910417 0.238125,0.5291667 0.5291667,0.5291667 z M 0.79375,4.4979167 H 1.3229167 V 3.96875 H 0.79375 Z M 2.38125,0.79375 H 1.8520833 V 1.3229167 H 2.38125 Z m 0.5291667,4.7625 H 3.4395833 V 5.0270833 H 2.9104167 Z M 5.0270833,3.4395833 H 5.55625 V 2.9104167 H 5.0270833 Z m 0,2.1166667 C 5.318125,5.55625 5.55625,5.318125 5.55625,5.0270833 H 5.0270833 Z m 0,-3.175 H 5.55625 V 1.8520833 H 5.0270833 Z m 0,2.1166667 H 5.55625 V 3.96875 H 5.0270833 Z M 3.96875,5.55625 H 4.4979167 V 5.0270833 H 3.96875 Z m 0,-4.2333333 H 4.4979167 V 0.79375 H 3.96875 Z m -2.1166667,3.175 H 4.4979167 V 1.8520833 H 1.8520833 Z M 2.38125,2.38125 h 1.5875 v 1.5875 h -1.5875 z"
         id="path103509" />
    </symbol>
    <symbol
       id="smiley"
       viewBox="0 0 20 20">
      <title
         id="title96360">smiley</title>
      <path
         style="stroke-width:1"
         inkscape:connector-curvature="0"
         d="M 1.8520833,1.3758333 A 0.52916667,0.52916667 0 0 1 2.38125,1.905 c 0,0.097896 -0.029104,0.1878542 -0.074083,0.2645833 0,0 -0.1905,-0.052917 -0.4550834,-0.052917 C 1.5875,2.1166667 1.397,2.1695833 1.397,2.1695833 1.3520208,2.0928542 1.3229167,2.0028958 1.3229167,1.905 A 0.52916667,0.52916667 0 0 1 1.8520833,1.3758333 Z m 1.5875,0 c 0.2936875,0 0.5291667,0.2354792 0.5291667,0.5291667 0,0.097896 -0.029104,0.1878542 -0.074083,0.2645833 0,0 -0.1905,-0.052917 -0.4550834,-0.052917 C 3.175,2.1166667 2.9845,2.1695833 2.9845,2.1695833 2.9395208,2.0928542 2.9104167,2.0028958 2.9104167,1.905 c 0,-0.2936875 0.2354791,-0.5291667 0.5291666,-0.5291667 z M 2.6458333,5.000625 A 2.2992292,2.2992292 0 0 0 4.8233542,3.444875 L 4.4741042,3.3231667 C 4.206875,4.1063333 3.4713333,4.6302083 2.6458333,4.6302083 c -0.8255,0 -1.5610416,-0.523875 -1.8282708,-1.3070416 l -0.34925,0.1217083 a 2.2992292,2.2992292 0 0 0 2.1775208,1.55575 z"
         id="path96362" />
    </symbol>
    <symbol
       id="update"
       viewBox="0 0 20 20">
      <title
         id="title96490">update</title>
      <path
         style="stroke-width:1"
         inkscape:connector-curvature="0"
         d="m 2.69875,0.86783333 c 0.9339792,0 1.7012708,0.69056247 1.8309167,1.58749997 H 5.08 L 4.1539583,3.5136667 3.2279167,2.4553333 H 3.84175 a 1.1744854,1.1744854 0 0 0 -1.143,-0.9128125 c -0.3836458,0 -0.7223125,0.1878542 -0.936625,0.4709584 L 1.3096875,1.4975417 A 1.8428229,1.8428229 0 0 1 2.69875,0.86783333 Z M 2.5929167,4.4238333 c -0.9313334,0 -1.70127087,-0.6905625 -1.8309167,-1.5875 H 0.21166667 L 1.1377083,1.778 C 1.4472708,2.1298958 1.7541875,2.4844375 2.06375,2.8363333 H 1.4499167 a 1.1744854,1.1744854 0 0 0 1.143,0.9128125 c 0.3836458,0 0.7223125,-0.1878541 0.936625,-0.4709583 L 3.9819792,3.794125 A 1.8388542,1.8388542 0 0 1 2.5929167,4.4238333 Z"
         id="path96492" />
    </symbol>
    <symbol
       id="translation"
       viewBox="0 0 20 20">
      <title
         id="title96445">translation</title>
      <path
         style="stroke-width:1"
         inkscape:connector-curvature="0"
         d="M 2.9104167,1.8520833 H 2.5108958 c -0.1666875,0 -0.3307291,0.079375 -0.4206875,0.1852084 L 1.8520833,1.3229167 H 1.0927292 L 0.460375,3.175 H 0.90752083 L 1.1033125,2.6458333 H 1.8520833 V 3.7041667 H 0.52916667 C 0.238125,3.7041667 0,3.4660417 0,3.175 V 1.3229167 C 0,1.031875 0.238125,0.79375 0.52916667,0.79375 H 2.38125 c 0.2910417,0 0.5291667,0.238125 0.5291667,0.5291667 z M 1.7224375,2.38125 H 1.1879792 L 1.4525625,1.6060208 Z M 2.6458333,2.1166667 h 1.8520834 c 0.2910416,0 0.5291666,0.238125 0.5291666,0.5291666 v 1.8520834 c 0,0.2910416 -0.238125,0.5291666 -0.5291666,0.5291666 H 2.6458333 c -0.2910416,0 -0.5291666,-0.238125 -0.5291666,-0.5291666 V 2.6458333 c 0,-0.2910416 0.238125,-0.5291666 0.5291666,-0.5291666 z m 1.9182292,1.3229166 v -0.28575 H 3.7253333 V 2.5796875 H 3.4184167 V 3.1538333 H 2.5796875 v 0.28575 h 0.3386667 c 0.029104,0.2248959 0.1481666,0.4894792 0.3386666,0.6932084 -0.2301875,0.09525 -0.5000625,0.1640416 -0.6111875,0.1640416 -0.00265,0.00529 0.058208,0.2566459 0.052917,0.3862917 0.22225,0 0.5847292,-0.1322917 0.8678333,-0.3042708 C 3.8549792,4.5508333 4.22275,4.683125 4.4502917,4.683125 4.445,4.5534792 4.5032083,4.302125 4.5032083,4.2968333 4.3894375,4.2968333 4.1089792,4.2253958 3.8735,4.1301458 4.0587083,3.9264167 4.175125,3.6618333 4.2042292,3.4395833 Z M 3.556,3.9502292 C 3.4237083,3.8285208 3.3311042,3.65125 3.2887708,3.4395833 H 3.84175 C 3.7967708,3.65125 3.7068125,3.8285208 3.5771667,3.9502292 l -0.010583,0.00794 c 0,0 -0.00794,-0.00529 -0.010584,-0.00794 z"
         id="path96447" />
    </symbol>
  </defs>
  <sodipodi:namedview
     id="base"
     pagecolor="#ffffff"
     bordercolor="#666666"
     borderopacity="1.0"
     inkscape:pageopacity="0.0"
     inkscape:pageshadow="2"
     inkscape:zoom="0.35000001"
     inkscape:cx="12.721191"
     inkscape:cy="375.5937"
     inkscape:document-units="mm"
     inkscape:current-layer="g250340"
     showgrid="true"
     showguides="true"
     inkscape:window-width="1366"
     inkscape:window-height="744"
     inkscape:window-x="0"
     inkscape:window-y="0"
     inkscape:window-maximized="1">
    <inkscape:grid
       type="xygrid"
       id="grid9716" />
  </sodipodi:namedview>
  <metadata
     id="metadata5">
    <rdf:RDF>
      <cc:Work
         rdf:about="">
        <dc:format>image/svg+xml</dc:format>
        <dc:type
           rdf:resource="http://purl.org/dc/dcmitype/StillImage" />
        <dc:title />
      </cc:Work>
    </rdf:RDF>
  </metadata>
  <g
     inkscape:label="Layer 1"
     inkscape:groupmode="layer"
     id="layer1"
     style="filter:url(#filter3713)">
    <g
       id="g10067"
       transform="matrix(2.2312914,0,0,2.2312914,-63.919569,-50.329088)"
       inkscape:export-xdpi="96"
       inkscape:export-ydpi="96">
      <g
         id="g250340"
         transform="matrix(1.0327863,0,0,1.0327863,-1.3838364,-3.2126423)"
         style="stroke-width:0.96825451">
        <use
           id="use9635"
           style="fill:#00aa88;stroke:#000000;stroke-width:0.96825451;filter:url(#filter10069)"
           xlink:href="#MagneticTape"
           x="0"
           y="0"
           width="100%"
           height="100%"
           transform="matrix(-3.5130625,0,0,-3.5130625,144.37461,161.98388)" />
        <use
           inkscape:transform-center-y="1.6036171"
           inkscape:transform-center-x="-3.7417733"
           height="100%"
           width="100%"
           y="0"
           x="0"
           xlink:href="#ic_bubble_chart_24px"
           style="fill:#000000;stroke:none;stroke-width:1.15095508"
           transform="matrix(0.37065665,0.06902586,-0.06902586,0.37065665,64.605752,54.513017)"
           id="use239260" />
        <g
           id="g243057"
           style="stroke-width:0.96825451">
          <use
             transform="matrix(1.1612386,-2.028103,1.9874014,1.1379339,50.027218,97.293241)"
             height="100%"
             width="100%"
             y="0"
             x="0"
             xlink:href="#Buffer"
             style="fill:#e6e6e6;stroke:#000000;stroke-width:1.66867459"
             id="use9703" />
          <use
             id="use242941"
             transform="matrix(0.07775217,0.10235966,-0.10180563,0.08077687,87.25582,81.099738)"
             style="fill:#000000;stroke:none;stroke-width:3.35781884"
             xlink:href="#ic_sort_24px"
             x="0"
             y="0"
             width="100%"
             height="100%"
             inkscape:transform-center-x="4.0505174"
             inkscape:transform-center-y="-0.082367441" />
        </g>
        <g
           id="g243061"
           style="stroke-width:0.96825451">
          <use
             id="use9718"
             style="fill:#e6e6e6;stroke:#000000;stroke-width:1.66867459"
             xlink:href="#Buffer"
             x="0"
             y="0"
             width="100%"
             height="100%"
             transform="matrix(-1.1612386,2.028103,-1.9874014,-1.1379339,102.84925,93.522596)" />
          <use
             id="use242957"
             transform="matrix(0.07775217,0.10235966,-0.10180563,0.08077687,72.834609,101.73208)"
             style="fill:#000000;stroke:none;stroke-width:3.35781884;filter:url(#filter3713)"
             xlink:href="#ic_sort_24px"
             x="0"
             y="0"
             width="100%"
             height="100%"
             inkscape:transform-center-x="4.0505174"
             inkscape:transform-center-y="-0.082367441" />
        </g>
        <use
           height="100%"
           width="100%"
           y="0"
           x="0"
           xlink:href="#translation"
           style="fill:#dbe3de;stroke:none;stroke-width:2.36724424"
           transform="matrix(0.18331169,0,0,0.18331169,71.722851,109.50147)"
           id="use250317" />
      </g>
    </g>
    <g
       inkscape:groupmode="layer"
       id="layer2"
       inkscape:label="Layer 2" />
  </g>
</svg>
