<?xml version="1.0" encoding="UTF-8" standalone="no"?>
<svg
   xmlns:osb="http://www.openswatchbook.org/uri/2009/osb"
   xmlns:dc="http://purl.org/dc/elements/1.1/"
   xmlns:cc="http://creativecommons.org/ns#"
   xmlns:rdf="http://www.w3.org/1999/02/22-rdf-syntax-ns#"
   xmlns:svg="http://www.w3.org/2000/svg"
   xmlns="http://www.w3.org/2000/svg"
   xmlns:xlink="http://www.w3.org/1999/xlink"
   xmlns:sodipodi="http://sodipodi.sourceforge.net/DTD/sodipodi-0.dtd"
   xmlns:inkscape="http://www.inkscape.org/namespaces/inkscape"
   id="svg136"
   version="1.1"
   viewBox="0 0 140.75846 140.75831"
   height="532"
   width="532"
   sodipodi:docname="fzt-alt-1.svg"
   inkscape:version="0.92.5 (2060ec1f9f, 2020-04-08)"
   inkscape:export-filename="/home/faouzi/Projects/Web/nextJs/NMT/png/fzt-official-2.png"
   inkscape:export-xdpi="240"
   inkscape:export-ydpi="240">
  <sodipodi:namedview
     pagecolor="#ffffff"
     bordercolor="#666666"
     borderopacity="1"
     objecttolerance="10"
     gridtolerance="10"
     guidetolerance="10"
     inkscape:pageopacity="0"
     inkscape:pageshadow="2"
     inkscape:window-width="1366"
     inkscape:window-height="744"
     id="namedview70"
     showgrid="true"
     inkscape:zoom="0.84096521"
     inkscape:cx="191.82339"
     inkscape:cy="274.88911"
     inkscape:window-x="0"
     inkscape:window-y="0"
     inkscape:window-maximized="1"
     inkscape:current-layer="g971"
     showguides="false"
     units="px"
     height="461pt">
    <inkscape:grid
       type="xygrid"
       id="grid891" />
  </sodipodi:namedview>
  <title
     id="title96506">Fz Machine Translator</title>
  <defs
     id="defs130">
    <inkscape:perspective
       sodipodi:type="inkscape:persp3d"
       inkscape:vp_x="23.257415 : 41.852533 : 1"
       inkscape:vp_y="-128.33238 : 510.80305 : 0"
       inkscape:vp_z="153.04215 : 85.775946 : 1"
       inkscape:persp3d-origin="91.160425 : 51.830943 : 1"
       id="perspective905" />
    <linearGradient
       inkscape:collect="always"
       id="linearGradient1043">
      <stop
         style="stop-color:#8787de;stop-opacity:1"
         offset="0"
         id="stop1039" />
      <stop
         style="stop-color:#37c8ab;stop-opacity:1"
         offset="1"
         id="stop1041" />
    </linearGradient>
    <linearGradient
       osb:paint="solid"
       id="linearGradient95968">
      <stop
         id="stop95966"
         offset="0"
         style="stop-color:#000000;stop-opacity:1;" />
    </linearGradient>
    <linearGradient
       osb:paint="solid"
       id="linearGradient95938">
      <stop
         id="stop95936"
         offset="0"
         style="stop-color:#000000;stop-opacity:1;" />
    </linearGradient>
    <linearGradient
       osb:paint="gradient"
       id="linearGradient95928">
      <stop
         id="stop95924"
         offset="0"
         style="stop-color:#000000;stop-opacity:1;" />
      <stop
         id="stop95926"
         offset="1"
         style="stop-color:#000000;stop-opacity:0;" />
    </linearGradient>
    <linearGradient
       osb:paint="gradient"
       id="linearGradient95895-7">
      <stop
         id="stop95891"
         offset="0"
         style="stop-color:#82c5fa;stop-opacity:1;" />
      <stop
         id="stop95893"
         offset="1"
         style="stop-color:#000000;stop-opacity:0;" />
    </linearGradient>
    <marker
       style="overflow:visible"
       id="Arrow1Lstart"
       refX="0"
       refY="0"
       orient="auto">
      <path
         transform="matrix(0.8,0,0,0.8,10,0)"
         style="fill-rule:evenodd;stroke:#000000;stroke-width:1.00000003pt"
         d="M 0,0 5,-5 -12.5,0 5,5 Z"
         id="path93315"
         inkscape:connector-curvature="0" />
    </marker>
    <filter
       id="filter3713"
       style="color-interpolation-filters:sRGB">
      <feBlend
         in2="BackgroundImage"
         id="feBlend3715"
         mode="darken" />
    </filter>
    <filter
       id="filter96868"
       style="color-interpolation-filters:sRGB">
      <feColorMatrix
         id="feColorMatrix96866"
         values="1 0 0 0 0 0 1 0 0 0 0 0 1 0 0 0 0 0 1000 -500 " />
    </filter>
    <filter
       id="filter97081"
       style="color-interpolation-filters:sRGB"
       x="-0.25"
       y="-0.25"
       width="1.5"
       height="1.5">
      <feGaussianBlur
         in="SourceAlpha"
         id="feGaussianBlur97069"
         result="result1"
         stdDeviation="5" />
      <feComposite
         id="feComposite97071"
         result="result3"
         k4="-2"
         k1="-1"
         k2="3.2"
         operator="arithmetic"
         in2="result1"
         k3="0" />
      <feColorMatrix
         id="feColorMatrix97073"
         result="result2"
         values="1 0 0 0 0 0 1 0 0 0 0 0 1 0 0 0 0 0 10 0 " />
      <feComposite
         in2="result2"
         in="SourceGraphic"
         id="feComposite97075"
         operator="out"
         result="fbSourceGraphic" />
      <feBlend
         id="feBlend97077"
         result="result91"
         mode="multiply"
         in2="fbSourceGraphic" />
      <feBlend
         id="feBlend97079"
         mode="screen"
         in2="result91" />
    </filter>
    <symbol
       viewBox="0 0 64 64"
       id="emoji-1f465">
      <title
         id="title51723">1f465</title>
      <path
         fill="#467591"
         d="m57 48c-2.135-1.569-2.396-3.097-.672-3.974 2.816-1.434 4.893-8.916 5.447-12.11 4.146-23.873-29.07-23.886-24.924 0 .555 3.193 2.627 10.676 5.445 12.11 1.736.883 1.395 2.335-.715 4.01-.703.558-10.502 6.02-13.268 7.867-.004.002-.014.007-.014.007l.002.002c-1.143.764-1.955 1.4-2.104 1.743-.787 1.818-1.074 6.346-1.074 6.346h38.873v-11.784c-3.6-2.192-6.988-4.209-6.996-4.214"
         id="path51725" />
      <path
         fill="#428bc1"
         d="m30.03 44.16c-2.648-1.947-2.973-3.841-.836-4.928 3.496-1.779 6.068-11.06 6.758-15.02 5.143-29.607-36.05-29.623-30.912 0 .688 3.961 3.26 13.241 6.754 15.02 2.154 1.094 1.729 2.895-.887 4.969-.583.462-6.215 3.646-10.906 6.39v13.41h50.49c0 0-.352-5.616-1.33-7.87-.346-.792-19.12-11.957-19.14-11.971"
         id="path51727" />
    </symbol>
    <symbol
       viewBox="0 0 64 64"
       id="emoji-1f346">
      <title
         id="title34399">1f346</title>
      <path
         fill="#7a2d77"
         d="m53.37 34.431c-7.638-9.102-19.516-10.328-30.587-21.12-6.683-6.516-18.512 6.394-15.258 12.566 4.303 8.164 14.191 23.901 23.14 30.817 19.02 14.692 38.12-3.884 22.7-22.261"
         id="path34401" />
      <path
         opacity=".15"
         d="m10 27.877c2.175-2.632 1.588-6.941 1.588-6.941s1.651 2.01 4.207 2.043l.186-4.439c0 0 3.779-.141 7.07-3.845l-11.172-.354-3.94 6.363 2.061 7.173"
         id="path34403" />
      <g
         fill="#83b730"
         id="g34411">
        <path
           d="m10.924 12.473l-.932 1.657c-2.441-1.666-5.799-6.05-2.381-12.13l1.464.999c-3.104 5.526 1.359 9.137 1.849 9.471"
           id="path34405" />
        <path
           d="m17.234 16.208c3.83.418 7.336-2.552 7.336-2.552s-2.704-3.646-6.531-4.067c-3.83-.421-7.115.722-7.339 2.547-.221 1.826 2.7 3.65 6.534 4.072"
           id="path34407" />
        <path
           d="m5.062 20.223c-.477 3.957 1.975 7.479 1.975 7.479s3.228-2.898 3.712-6.856c.484-3.957-.402-7.306-1.969-7.48-1.571-.168-3.23 2.899-3.718 6.857"
           id="path34409" />
      </g>
      <path
         fill="#8cc63e"
         d="m8.668 17.972c2.545 3.541 7.906 3.536 7.906 3.536s1.236-5.742-1.307-9.283c-2.539-3.543-6.081-5.125-7.906-3.538-1.814 1.582-1.235 5.743 1.307 9.285"
         id="path34413" />
    </symbol>
    <symbol
       viewBox="0 0 64 64"
       id="emoji-1f41d">
      <title
         id="title47259">1f41d</title>
      <path
         fill="#3f3438"
         d="M53.24 49.886 62 60.795 48.703 56.52z"
         id="path47261" />
      <path
         fill="#ffce31"
         d="m51.03 30.786l-.242 2.564 1.87-1.798-.488 2.538 2.05-1.609-.78 2.464 2.231-1.351-1.091 2.345 2.397-1.041-1.417 2.172 2.53-.68-1.74 1.93 2.6-.29-2.01 1.645 2.612.097-2.23 1.348 2.571.448-2.391 1.046 2.497.766-2.507.82 2.39 1.12-2.58.526 2.23 1.384-2.631.22 2.051 1.64-2.64-.08 1.85 1.857-2.61-.377 1.63 2.05-2.557-.65 1.397 2.2-2.47-.9 1.171 2.33-2.371-1.14.94 2.433-2.26-1.353.713 2.506-2.122-1.546.479 2.557-1.97-1.727.26 2.594-1.828-1.881.042 2.597-1.664-2.02-.168 2.6-1.502-2.144-.374 2.574-1.317-2.25-.581 2.537-1.14-2.347-.778 2.49-.96-2.43-.96 2.43-.77-2.49-1.14 2.348-.578-2.538-1.322 2.25-.377-2.574-1.493 2.144-.17-2.6-1.665 2.03.041-2.608-1.824 1.882.258-2.594-1.98 1.727.483-2.557-2.122 1.544.709-2.504-2.253 1.351.939-2.431-2.373 1.14 1.171-2.33-2.473.9 1.4-2.204-2.551.654z"
         id="path47263" />
      <path
         fill="#3f3438"
         d="m10.896 39.65l36.404-11.824-.487 2.533 2.048-1.605-.771 2.466 2.22-1.353-1.08 2.343 2.392-1.04-1.412 2.17 2.519-.681-1.732 1.934 2.598-.293-2.01 1.648 2.607.102-2.227 1.34 2.567.452-2.39 1.046 2.502.762-2.502.828 2.38 1.114-2.579.528 2.229 1.389-2.63.221 2.055 1.64-2.637-.09 1.848 1.86-2.616-.373 1.633 2.046-2.553-.653 1.398 2.21-2.468-.91 1.17 2.334-2.376-1.14.939 2.436-2.253-1.359.71 2.509-2.12-1.549.479 2.559-1.977-1.72.258 2.59-1.82-1.88.04 2.598-1.664-2.02-.166 2.594-1.499-2.14-.378 2.576-1.313-2.256-.585 2.54-1.14-2.347-.776 2.487-.959-2.422-.959 2.422-.771-2.487-1.145 2.347-.575-2.54-1.323 2.256-.378-2.576-1.489 2.15-.177-2.603-1.662 2.023.039-2.6-1.824 1.88.262-2.59-1.981 1.72.484-2.559-2.121 1.549.705-2.51-2.253 1.35.939-2.429-2.371 1.14 1.17-2.331-2.475.91 1.403-2.21-2.556.65 1.63-2.047-2.612.377 1.848-1.86-2.637.08 2.051-1.634-2.628-.221 2.232-1.385-2.586-.527 2.386-1.115z"
         id="path47265" />
      <g
         fill="#c9e4f2"
         id="g47271">
        <path
           d="m60.05 4.332c-3.603-4.513-10.246-2.28-14.839 4.994-4.595 7.272-7.952 19.966-7.952 19.966s15.536 2.551 20.13-4.715c4.594-7.268 6.265-15.731 2.664-20.245"
           id="path47267" />
        <path
           d="m3.917 8.889c-3.541 4.339-1.892 12.395 2.62 19.291 4.518 6.894 19.788 4.308 19.788 4.308s-3.305-12.08-7.818-18.973c-4.517-6.898-11.05-8.967-14.59-4.626"
           id="path47269" />
      </g>
      <path
         fill="#ffce31"
         d="m33.61 25.23l.975-1.805.339 2.02 1.086-1.748.21 2.037 1.193-1.675.064 2.05 1.318-1.585-.101 2.044 1.446-1.469-.287 2.03 1.587-1.32-.508 1.985 1.725-1.137-.741 1.911 1.856-.913-.99 1.798 1.966-.655-1.234 1.644 2.039-.373-1.463 1.451 2.07-.086-1.642 1.241 2.065.182-1.793 1.031 2.029.421-1.899.83 1.973.633-1.976.694 1.893.883-2.038.492 1.788 1.08-2.08.278 1.67 1.253-2.1.059 1.524 1.422-2.09-.153 1.37 1.569-2.065-.366 1.203 1.695-2.02-.559 1.024 1.8-1.95-.75.852 1.89-1.872-.93.667 1.96-1.778-1.096.481 2.02-1.667-1.257.297 2.048-1.55-1.401.104 2.07-1.414-1.531-.08 2.071-1.27-1.65-.268 2.05-1.116-1.751-.452 2.02-.954-1.84-.632 1.973-.793-1.914-.792 1.914-.623-1.973-.96 1.84-.453-2.02-1.115 1.751-.269-2.05-1.263 1.65-.09-2.072-1.411 1.532.101-2.07-1.54 1.4.289-2.048-1.668 1.258.48-2.02-1.777 1.099.666-1.96-1.871.93.851-1.89-1.955.746 1.031-1.796-2.02.556z"
         id="path47273" />
      <path
         fill="#3f3438"
         d="m9.237 33.14l1.773-.598-1.714-.747 1.824-.432-1.633-.908 1.854-.245-1.515-1.08 1.871-.02-1.367-1.263 1.857.213-1.187-1.426 1.812.456-.982-1.571 1.734.691-.766-1.681 1.631.906-.549-1.766 1.511 1.091-.341-1.814 1.382 1.244-.159-1.841 1.258 1.367.004-1.846 1.143 1.462.151-1.84 1.029 1.548.282-1.83.92 1.604.396-1.804.831 1.652.494-1.782.744 1.695.575-1.755.671 1.727.663-1.727.586 1.755.739-1.695.491 1.782.83-1.652.396 1.803.926-1.603.286 1.83 1.032-1.546.154 1.84 1.146-1.462v1.848l1.27-1.365-.16 1.845 1.385-1.245-.345 1.813 1.51-1.087-.55 1.763 1.629-.903-.768 1.679 1.735-.688-.987 1.568 1.814-.455-1.193 1.425 1.86-.214-1.369 1.254 1.87.03-1.521 1.08 1.86.236-1.631.908 1.821.433-1.714.746 1.774.597-1.776.657 1.706.81-1.83.493 1.62.96-1.86.32 1.523 1.111-1.888.149 1.415 1.243-1.9-.028 1.289 1.375-1.882-.21 1.15 1.488-1.857-.378 1.01 1.584-1.81-.544.84 1.667-1.75-.717.689 1.744-1.669-.874.511 1.799-1.581-1.028.336 1.839-1.476-1.17.16 1.86-1.352-1.31-.03 1.868-1.215-1.428-.216 1.85-1.067-1.54-.4 1.828-.91-1.639-.572 1.78-.747-1.717-.741 1.717-.578-1.78-.911 1.639-.401-1.828-1.07 1.54-.207-1.85-1.217 1.428-.029-1.869-1.352 1.311.155-1.87-1.474 1.178.337-1.838-1.582 1.026.516-1.798-1.675.874.687-1.742-1.751.714.849-1.674-1.812.551 1.01-1.581-1.855.374 1.15-1.484-1.882.21 1.287-1.376-1.893.029 1.412-1.245-1.889-.148 1.524-1.11-1.866-.32 1.623-.96-1.827-.494 1.705-.811z"
         id="path47275" />
      <path
         fill="#fcfcfa"
         d="m34.633 32.504c0 3.602-2.906 6.517-6.492 6.517-3.584 0-6.49-2.915-6.49-6.517 0-3.596 2.906-6.513 6.49-6.513 3.586 0 6.492 2.917 6.492 6.513"
         id="path47277" />
      <path
         fill="#3f3438"
         d="m33.619 32.504c0 2.476-1.998 4.481-4.465 4.481-2.461 0-4.461-2.01-4.461-4.481 0-2.474 2-4.48 4.461-4.48 2.467 0 4.465 2.01 4.465 4.48"
         id="path47279" />
      <ellipse
         fill="#fcfcfa"
         cx="14.845"
         cy="32.504"
         rx="5.41"
         ry="5.43"
         id="ellipse47281" />
      <g
         fill="#3f3438"
         id="g47289">
        <ellipse
           cx="15.858"
           cy="32.504"
           rx="3.72"
           ry="3.734"
           id="ellipse47283" />
        <path
           d="m36.32 16.912c-5.478-.146-8.747 1.894-10.291 6.01-.221.588.706.833.982.271 1.275-2.588 3.475-5.567 9.307-5.252 0 0 .001 0 .002 0 .635 0 .635-1.025 0-1.025"
           id="path47285" />
        <path
           d="m17.842 24.615c-3.768-3.925-7.543-4.761-11.582-2.933-.578.262-.097 1.082.499.879 2.758-.941 6.448-1.514 10.346 2.778 0 0 .001 0 .002 0 .45.444 1.184-.28.735-.724"
           id="path47287" />
      </g>
    </symbol>
    <symbol
       viewBox="0 0 24 24"
       id="ic_translate_24px">
      <path
         d="M12.87 15.07l-2.54-2.51.03-.03A17.52 17.52 0 0 0 14.07 6H17V4h-7V2H8v2H1v1.99h11.17C11.5 7.92 10.44 9.75 9 11.35 8.07 10.32 7.3 9.19 6.69 8h-2c.73 1.63 1.73 3.17 2.98 4.56l-5.09 5.02L4 19l5-5 3.11 3.11.76-2.04zM18.5 10h-2L12 22h2l1.12-3h4.75L21 22h2l-4.5-12zm-2.62 7l1.62-4.33L19.12 17h-3.24z"
         id="path18495" />
    </symbol>
    <symbol
       id="translation"
       viewBox="0 0 20 20">
      <title
         id="title5891">translation</title>
      <path
         d="M11 7H9.49c-.63 0-1.25.3-1.59.7L7 5H4.13l-2.39 7h1.69l.74-2H7v4H2c-1.1 0-2-.9-2-2V5c0-1.1.9-2 2-2h7c1.1 0 2 .9 2 2v2zM6.51 9H4.49l1-2.93zM10 8h7c1.1 0 2 .9 2 2v7c0 1.1-.9 2-2 2h-7c-1.1 0-2-.9-2-2v-7c0-1.1.9-2 2-2zm7.25 5v-1.08h-3.17V9.75h-1.16v2.17H9.75V13h1.28c.11.85.56 1.85 1.28 2.62-.87.36-1.89.62-2.31.62-.01.02.22.97.2 1.46.84 0 2.21-.5 3.28-1.15 1.09.65 2.48 1.15 3.34 1.15-.02-.49.2-1.44.2-1.46-.43 0-1.49-.27-2.38-.63.7-.77 1.14-1.77 1.25-2.61h1.36zm-3.81 1.93c-.5-.46-.85-1.13-1.01-1.93h2.09c-.17.8-.51 1.47-1 1.93l-.04.03s-.03-.02-.04-.03z"
         id="path5893" />
    </symbol>
    <linearGradient
       inkscape:collect="always"
       xlink:href="#linearGradient1043"
       id="linearGradient1045"
       x1="96.273399"
       y1="250.43651"
       x2="61.135082"
       y2="206.9581"
       gradientUnits="userSpaceOnUse" />
  </defs>
  <metadata
     id="metadata133">
    <rdf:RDF>
      <cc:Work
         rdf:about="">
        <dc:format>image/svg+xml</dc:format>
        <dc:type
           rdf:resource="http://purl.org/dc/dcmitype/StillImage" />
        <dc:title>Fz Machine Translator</dc:title>
        <dc:creator>
          <cc:Agent>
            <dc:title>Faouzi Mohamed</dc:title>
          </cc:Agent>
        </dc:creator>
        <cc:license
           rdf:resource="http://artlibre.org/licence/lal" />
      </cc:Work>
      <cc:License
         rdf:about="http://artlibre.org/licence/lal">
        <cc:permits
           rdf:resource="http://creativecommons.org/ns#Reproduction" />
        <cc:permits
           rdf:resource="http://creativecommons.org/ns#Distribution" />
        <cc:permits
           rdf:resource="http://creativecommons.org/ns#DerivativeWorks" />
        <cc:requires
           rdf:resource="http://creativecommons.org/ns#ShareAlike" />
        <cc:requires
           rdf:resource="http://creativecommons.org/ns#Notice" />
        <cc:requires
           rdf:resource="http://creativecommons.org/ns#Attribution" />
      </cc:License>
    </rdf:RDF>
  </metadata>
  <g
     id="g1990"
     transform="translate(0,-156.24171)">
    <g
       transform="matrix(-18.286786,0,0,-17.984885,526.25913,435.8363)"
       id="g96136"
       style="fill:#008066;fill-opacity:0.76999996;stroke:#000000;stroke-width:0.22921681;stroke-linecap:round;stroke-linejoin:miter;stroke-opacity:1;paint-order:normal" />
    <g
       transform="matrix(-18.286786,0,0,-17.984885,90.325887,243.79508)"
       id="g96755"
       style="fill:#008066;fill-opacity:0.76999996;stroke:#000000;stroke-width:0.22921681;stroke-linecap:round;stroke-linejoin:round;stroke-opacity:1;paint-order:normal;filter:url(#filter96868)" />
    <g
       transform="matrix(7.0197652,-14.912759,13.746029,7.4379705,3.0906687,110.02197)"
       style="fill:#ffffff;stroke:#000000;stroke-width:0.16499509;stroke-linecap:round;stroke-linejoin:round;stroke-miterlimit:4;stroke-dasharray:none;stroke-opacity:1"
       id="g96610">
      <title
         id="title96606">Buffer</title>
    </g>
    <g
       aria-label="Translator"
       style="font-style:normal;font-variant:normal;font-weight:normal;font-stretch:normal;font-size:9.82808399px;line-height:1.25;font-family:'StarJedi Special Edition';-inkscape-font-specification:'StarJedi Special Edition';letter-spacing:0px;word-spacing:0px;fill:#ddff55;fill-opacity:1;stroke:#000000;stroke-width:1.32291782;stroke-miterlimit:4;stroke-dasharray:none;stroke-opacity:1"
       id="text872"
       transform="matrix(2.1101451,0,0,2.1101451,-58.184511,-239.73348)" />
    <g
       id="g971"
       transform="matrix(1.3722435,0,0,1.3722435,-3.76721,-82.03033)">
      <g
         id="g1041"
         inkscape:export-filename="/home/faouzi/Projects/Web/nextJs/NMT/png/fzt-official-2.png"
         inkscape:export-xdpi="240"
         inkscape:export-ydpi="240">
        <g
           id="g980">
          <g
             transform="matrix(1.8284347,0,0,1.8284347,-40.065243,-197.33323)"
             id="text114853"
             style="font-style:normal;font-variant:normal;font-weight:normal;font-stretch:normal;font-size:26.6559124px;line-height:1.25;font-family:'StarJedi Special Edition';-inkscape-font-specification:'StarJedi Special Edition, Normal';font-variant-ligatures:normal;font-variant-caps:normal;font-variant-numeric:normal;font-feature-settings:normal;text-align:center;letter-spacing:0px;word-spacing:0px;writing-mode:lr-tb;text-anchor:middle;fill:#006680;fill-opacity:1;stroke:#000000;stroke-width:0;stroke-miterlimit:4;stroke-dasharray:none;stroke-opacity:1"
             aria-label="FzT">
            <path
               inkscape:connector-curvature="0"
               id="path83769"
               style="font-style:normal;font-variant:normal;font-weight:normal;font-stretch:normal;font-size:26.6559124px;font-family:'StarJedi Special Edition';-inkscape-font-specification:'StarJedi Special Edition, Normal';font-variant-ligatures:normal;font-variant-caps:normal;font-variant-numeric:normal;font-feature-settings:normal;text-align:center;writing-mode:lr-tb;text-anchor:middle;fill:#006680;fill-opacity:1;stroke:#000000;stroke-width:0;stroke-miterlimit:4;stroke-dasharray:none;stroke-opacity:1"
               d="m 28.061811,234.16537 v -13.1978 h -3.904674 v -5.5967 h 20.017965 v 5.5967 h -9.995967 v 1.22347 h 4.191017 v 3.64436 h -4.191017 v 8.32997 z" />
            <path
               inkscape:connector-curvature="0"
               id="path83771"
               style="font-style:normal;font-variant:normal;font-weight:normal;font-stretch:normal;font-size:26.6559124px;font-family:'StarJedi Special Edition';-inkscape-font-specification:'StarJedi Special Edition, Normal';font-variant-ligatures:normal;font-variant-caps:normal;font-variant-numeric:normal;font-feature-settings:normal;text-align:center;writing-mode:lr-tb;text-anchor:middle;fill:#006680;fill-opacity:1;stroke:#000000;stroke-width:0;stroke-miterlimit:4;stroke-dasharray:none;stroke-opacity:1"
               d="m 45.086192,215.37087 h 17.180569 v 5.5967 q -6.299542,4.5034 -7.236664,7.57507 l 7.236664,0.026 v 5.5967 H 45.086192 q -0.312374,-6.61191 9.097892,-13.1978 h -9.097892 z" />
            <path
               inkscape:connector-curvature="0"
               id="path83773"
               style="font-style:normal;font-variant:normal;font-weight:normal;font-stretch:normal;font-size:26.6559124px;font-family:'StarJedi Special Edition';-inkscape-font-specification:'StarJedi Special Edition, Normal';font-variant-ligatures:normal;font-variant-caps:normal;font-variant-numeric:normal;font-feature-settings:normal;text-align:center;writing-mode:lr-tb;text-anchor:middle;fill:#006680;fill-opacity:1;stroke:#000000;stroke-width:0;stroke-miterlimit:4;stroke-dasharray:none;stroke-opacity:1"
               d="m 78.770519,215.37087 v 5.5967 h -5.961136 v 13.1978 h -6.117324 v -13.1978 h -5.961137 v -5.5967 z" />
          </g>
          <g
             id="g962"
             style="paint-order:stroke fill markers">
            <use
               id="use129843"
               style="fill:#aa0044;fill-opacity:1;stroke:none;paint-order:stroke fill markers"
               xlink:href="#translation"
               transform="matrix(0.15452583,0,0,0.15452583,81.382715,232.72741)"
               x="0"
               y="0"
               width="100%"
               height="100%"
               inkscape:transform-center-x="-0.90836549"
               inkscape:transform-center-y="0.7786006" />
            <path
               style="fill:#ff80b2;stroke:#1f2b4d;stroke-width:2.32833552;stroke-linecap:square;stroke-linejoin:round;stroke-miterlimit:4;stroke-dasharray:none;stroke-opacity:1;paint-order:stroke fill markers"
               d="m 3.7621302,233.50004 c 100.1349198,0 100.5417498,0 100.5417498,0"
               id="path958"
               inkscape:connector-curvature="0" />
          </g>
        </g>
        <path
           d="M 11.243946,230.82286 V 206.69154 H 4.1045045 v -10.2332 H 40.706046 v 10.2332 H 22.429073 v 2.23704 h 7.663001 v 6.66347 h -7.663001 v 15.23081 z"
           style="font-style:normal;font-variant:normal;font-weight:normal;font-stretch:normal;font-size:26.6559124px;line-height:1.25;font-family:'StarJedi Special Edition';-inkscape-font-specification:'StarJedi Special Edition, Normal';font-variant-ligatures:normal;font-variant-caps:normal;font-variant-numeric:normal;font-feature-settings:normal;text-align:center;letter-spacing:0px;word-spacing:0px;writing-mode:lr-tb;text-anchor:middle;fill:#006680;fill-opacity:1;stroke:#000000;stroke-width:0;stroke-miterlimit:4;stroke-dasharray:none;stroke-opacity:1"
           id="path982"
           inkscape:connector-curvature="0" />
        <path
           d="m 42.371915,196.45834 h 31.413548 v 10.2332 q -11.518301,8.23418 -13.231767,13.85052 l 13.231767,0.0475 v 10.2332 H 42.371915 q -0.571156,-12.0894 16.634901,-24.13127 H 42.371915 Z"
           style="font-style:normal;font-variant:normal;font-weight:normal;font-stretch:normal;font-size:26.6559124px;line-height:1.25;font-family:'StarJedi Special Edition';-inkscape-font-specification:'StarJedi Special Edition, Normal';font-variant-ligatures:normal;font-variant-caps:normal;font-variant-numeric:normal;font-feature-settings:normal;text-align:center;letter-spacing:0px;word-spacing:0px;writing-mode:lr-tb;text-anchor:middle;fill:#006680;fill-opacity:1;stroke:#000000;stroke-width:0;stroke-miterlimit:4;stroke-dasharray:none;stroke-opacity:1"
           id="path984"
           inkscape:connector-curvature="0" />
        <path
           d="m 103.96151,196.45834 v 10.2332 H 93.061959 v 24.13132 H 81.876832 v -24.13132 h -10.89955 v -10.2332 z"
           style="font-style:normal;font-variant:normal;font-weight:normal;font-stretch:normal;font-size:26.6559124px;line-height:1.25;font-family:'StarJedi Special Edition';-inkscape-font-specification:'StarJedi Special Edition, Normal';font-variant-ligatures:normal;font-variant-caps:normal;font-variant-numeric:normal;font-feature-settings:normal;text-align:center;letter-spacing:0px;word-spacing:0px;writing-mode:lr-tb;text-anchor:middle;fill:#006680;fill-opacity:1;stroke:#000000;stroke-width:0;stroke-miterlimit:4;stroke-dasharray:none;stroke-opacity:1"
           id="path986"
           inkscape:connector-curvature="0" />
        <use
           inkscape:transform-center-y="0.7786006"
           inkscape:transform-center-x="-0.90836549"
           height="100%"
           width="100%"
           y="0"
           x="0"
           transform="matrix(0.15452583,0,0,0.15452583,81.382715,232.72741)"
           xlink:href="#translation"
           style="fill:#aa0044;fill-opacity:1;stroke:none;paint-order:stroke fill markers"
           id="use990" />
        <path
           inkscape:connector-curvature="0"
           id="path992"
           d="m 3.7621302,233.50004 c 100.1349198,0 100.5417498,0 100.5417498,0"
           style="fill:#ff80b2;stroke:#1f2b4d;stroke-width:2.32833552;stroke-linecap:square;stroke-linejoin:round;stroke-miterlimit:4;stroke-dasharray:none;stroke-opacity:1;paint-order:stroke fill markers" />
      </g>
    </g>
  </g>
</svg>
