<svg xmlns="http://www.w3.org/2000/svg" xmlns:osb="http://www.openswatchbook.org/uri/2009/osb" xmlns:svg="http://www.w3.org/2000/svg" xmlns:xlink="http://www.w3.org/1999/xlink" id="svg136" width="532" height="532" version="1.1" viewBox="0 0 140.758 140.758"><title id="title96506">Fz Machine Translator</title><defs id="defs130"><linearGradient id="linearGradient1043"><stop style="stop-color:#8787de;stop-opacity:1" id="stop1039" offset="0"/><stop style="stop-color:#37c8ab;stop-opacity:1" id="stop1041" offset="1"/></linearGradient><linearGradient id="linearGradient95968" osb:paint="solid"><stop id="stop95966" offset="0" style="stop-color:#000;stop-opacity:1"/></linearGradient><linearGradient id="linearGradient95938" osb:paint="solid"><stop id="stop95936" offset="0" style="stop-color:#000;stop-opacity:1"/></linearGradient><linearGradient id="linearGradient95928" osb:paint="gradient"><stop id="stop95924" offset="0" style="stop-color:#000;stop-opacity:1"/><stop id="stop95926" offset="1" style="stop-color:#000;stop-opacity:0"/></linearGradient><linearGradient id="linearGradient95895-7" osb:paint="gradient"><stop id="stop95891" offset="0" style="stop-color:#82c5fa;stop-opacity:1"/><stop id="stop95893" offset="1" style="stop-color:#000;stop-opacity:0"/></linearGradient><marker style="overflow:visible" id="Arrow1Lstart" orient="auto" refX="0" refY="0"><path style="fill-rule:evenodd;stroke:#000;stroke-width:1.00000003pt" id="path93315" d="M 0,0 5,-5 -12.5,0 5,5 Z" transform="matrix(0.8,0,0,0.8,10,0)"/></marker><filter id="filter3713" style="color-interpolation-filters:sRGB"><feBlend id="feBlend3715" in2="BackgroundImage" mode="darken"/></filter><filter id="filter96868" style="color-interpolation-filters:sRGB"><feColorMatrix id="feColorMatrix96866" values="1 0 0 0 0 0 1 0 0 0 0 0 1 0 0 0 0 0 1000 -500"/></filter><filter id="filter97081" width="1.5" height="1.5" x="-.25" y="-.25" style="color-interpolation-filters:sRGB"><feGaussianBlur id="feGaussianBlur97069" in="SourceAlpha" result="result1" stdDeviation="5"/><feComposite id="feComposite97071" in2="result1" k1="-1" k2="3.2" k3="0" k4="-2" operator="arithmetic" result="result3"/><feColorMatrix id="feColorMatrix97073" result="result2" values="1 0 0 0 0 0 1 0 0 0 0 0 1 0 0 0 0 0 10 0"/><feComposite id="feComposite97075" in="SourceGraphic" in2="result2" operator="out" result="fbSourceGraphic"/><feBlend id="feBlend97077" in2="fbSourceGraphic" mode="multiply" result="result91"/><feBlend id="feBlend97079" in2="result91" mode="screen"/></filter><symbol id="emoji-1f465" viewBox="0 0 64 64"><title id="title51723">1f465</title><path id="path51725" fill="#467591" d="m57 48c-2.135-1.569-2.396-3.097-.672-3.974 2.816-1.434 4.893-8.916 5.447-12.11 4.146-23.873-29.07-23.886-24.924 0 .555 3.193 2.627 10.676 5.445 12.11 1.736.883 1.395 2.335-.715 4.01-.703.558-10.502 6.02-13.268 7.867-.004.002-.014.007-.014.007l.002.002c-1.143.764-1.955 1.4-2.104 1.743-.787 1.818-1.074 6.346-1.074 6.346h38.873v-11.784c-3.6-2.192-6.988-4.209-6.996-4.214"/><path id="path51727" fill="#428bc1" d="m30.03 44.16c-2.648-1.947-2.973-3.841-.836-4.928 3.496-1.779 6.068-11.06 6.758-15.02 5.143-29.607-36.05-29.623-30.912 0 .688 3.961 3.26 13.241 6.754 15.02 2.154 1.094 1.729 2.895-.887 4.969-.583.462-6.215 3.646-10.906 6.39v13.41h50.49c0 0-.352-5.616-1.33-7.87-.346-.792-19.12-11.957-19.14-11.971"/></symbol><symbol id="emoji-1f346" viewBox="0 0 64 64"><title id="title34399">1f346</title><path id="path34401" fill="#7a2d77" d="m53.37 34.431c-7.638-9.102-19.516-10.328-30.587-21.12-6.683-6.516-18.512 6.394-15.258 12.566 4.303 8.164 14.191 23.901 23.14 30.817 19.02 14.692 38.12-3.884 22.7-22.261"/><path id="path34403" d="m10 27.877c2.175-2.632 1.588-6.941 1.588-6.941s1.651 2.01 4.207 2.043l.186-4.439c0 0 3.779-.141 7.07-3.845l-11.172-.354-3.94 6.363 2.061 7.173" opacity=".15"/><g id="g34411" fill="#83b730"><path id="path34405" d="m10.924 12.473l-.932 1.657c-2.441-1.666-5.799-6.05-2.381-12.13l1.464.999c-3.104 5.526 1.359 9.137 1.849 9.471"/><path id="path34407" d="m17.234 16.208c3.83.418 7.336-2.552 7.336-2.552s-2.704-3.646-6.531-4.067c-3.83-.421-7.115.722-7.339 2.547-.221 1.826 2.7 3.65 6.534 4.072"/><path id="path34409" d="m5.062 20.223c-.477 3.957 1.975 7.479 1.975 7.479s3.228-2.898 3.712-6.856c.484-3.957-.402-7.306-1.969-7.48-1.571-.168-3.23 2.899-3.718 6.857"/></g><path id="path34413" fill="#8cc63e" d="m8.668 17.972c2.545 3.541 7.906 3.536 7.906 3.536s1.236-5.742-1.307-9.283c-2.539-3.543-6.081-5.125-7.906-3.538-1.814 1.582-1.235 5.743 1.307 9.285"/></symbol><symbol id="emoji-1f41d" viewBox="0 0 64 64"><title id="title47259">1f41d</title><path id="path47261" fill="#3f3438" d="M53.24 49.886 62 60.795 48.703 56.52z"/><path id="path47263" fill="#ffce31" d="m51.03 30.786l-.242 2.564 1.87-1.798-.488 2.538 2.05-1.609-.78 2.464 2.231-1.351-1.091 2.345 2.397-1.041-1.417 2.172 2.53-.68-1.74 1.93 2.6-.29-2.01 1.645 2.612.097-2.23 1.348 2.571.448-2.391 1.046 2.497.766-2.507.82 2.39 1.12-2.58.526 2.23 1.384-2.631.22 2.051 1.64-2.64-.08 1.85 1.857-2.61-.377 1.63 2.05-2.557-.65 1.397 2.2-2.47-.9 1.171 2.33-2.371-1.14.94 2.433-2.26-1.353.713 2.506-2.122-1.546.479 2.557-1.97-1.727.26 2.594-1.828-1.881.042 2.597-1.664-2.02-.168 2.6-1.502-2.144-.374 2.574-1.317-2.25-.581 2.537-1.14-2.347-.778 2.49-.96-2.43-.96 2.43-.77-2.49-1.14 2.348-.578-2.538-1.322 2.25-.377-2.574-1.493 2.144-.17-2.6-1.665 2.03.041-2.608-1.824 1.882.258-2.594-1.98 1.727.483-2.557-2.122 1.544.709-2.504-2.253 1.351.939-2.431-2.373 1.14 1.171-2.33-2.473.9 1.4-2.204-2.551.654z"/><path id="path47265" fill="#3f3438" d="m10.896 39.65l36.404-11.824-.487 2.533 2.048-1.605-.771 2.466 2.22-1.353-1.08 2.343 2.392-1.04-1.412 2.17 2.519-.681-1.732 1.934 2.598-.293-2.01 1.648 2.607.102-2.227 1.34 2.567.452-2.39 1.046 2.502.762-2.502.828 2.38 1.114-2.579.528 2.229 1.389-2.63.221 2.055 1.64-2.637-.09 1.848 1.86-2.616-.373 1.633 2.046-2.553-.653 1.398 2.21-2.468-.91 1.17 2.334-2.376-1.14.939 2.436-2.253-1.359.71 2.509-2.12-1.549.479 2.559-1.977-1.72.258 2.59-1.82-1.88.04 2.598-1.664-2.02-.166 2.594-1.499-2.14-.378 2.576-1.313-2.256-.585 2.54-1.14-2.347-.776 2.487-.959-2.422-.959 2.422-.771-2.487-1.145 2.347-.575-2.54-1.323 2.256-.378-2.576-1.489 2.15-.177-2.603-1.662 2.023.039-2.6-1.824 1.88.262-2.59-1.981 1.72.484-2.559-2.121 1.549.705-2.51-2.253 1.35.939-2.429-2.371 1.14 1.17-2.331-2.475.91 1.403-2.21-2.556.65 1.63-2.047-2.612.377 1.848-1.86-2.637.08 2.051-1.634-2.628-.221 2.232-1.385-2.586-.527 2.386-1.115z"/><g id="g47271" fill="#c9e4f2"><path id="path47267" d="m60.05 4.332c-3.603-4.513-10.246-2.28-14.839 4.994-4.595 7.272-7.952 19.966-7.952 19.966s15.536 2.551 20.13-4.715c4.594-7.268 6.265-15.731 2.664-20.245"/><path id="path47269" d="m3.917 8.889c-3.541 4.339-1.892 12.395 2.62 19.291 4.518 6.894 19.788 4.308 19.788 4.308s-3.305-12.08-7.818-18.973c-4.517-6.898-11.05-8.967-14.59-4.626"/></g><path id="path47273" fill="#ffce31" d="m33.61 25.23l.975-1.805.339 2.02 1.086-1.748.21 2.037 1.193-1.675.064 2.05 1.318-1.585-.101 2.044 1.446-1.469-.287 2.03 1.587-1.32-.508 1.985 1.725-1.137-.741 1.911 1.856-.913-.99 1.798 1.966-.655-1.234 1.644 2.039-.373-1.463 1.451 2.07-.086-1.642 1.241 2.065.182-1.793 1.031 2.029.421-1.899.83 1.973.633-1.976.694 1.893.883-2.038.492 1.788 1.08-2.08.278 1.67 1.253-2.1.059 1.524 1.422-2.09-.153 1.37 1.569-2.065-.366 1.203 1.695-2.02-.559 1.024 1.8-1.95-.75.852 1.89-1.872-.93.667 1.96-1.778-1.096.481 2.02-1.667-1.257.297 2.048-1.55-1.401.104 2.07-1.414-1.531-.08 2.071-1.27-1.65-.268 2.05-1.116-1.751-.452 2.02-.954-1.84-.632 1.973-.793-1.914-.792 1.914-.623-1.973-.96 1.84-.453-2.02-1.115 1.751-.269-2.05-1.263 1.65-.09-2.072-1.411 1.532.101-2.07-1.54 1.4.289-2.048-1.668 1.258.48-2.02-1.777 1.099.666-1.96-1.871.93.851-1.89-1.955.746 1.031-1.796-2.02.556z"/><path id="path47275" fill="#3f3438" d="m9.237 33.14l1.773-.598-1.714-.747 1.824-.432-1.633-.908 1.854-.245-1.515-1.08 1.871-.02-1.367-1.263 1.857.213-1.187-1.426 1.812.456-.982-1.571 1.734.691-.766-1.681 1.631.906-.549-1.766 1.511 1.091-.341-1.814 1.382 1.244-.159-1.841 1.258 1.367.004-1.846 1.143 1.462.151-1.84 1.029 1.548.282-1.83.92 1.604.396-1.804.831 1.652.494-1.782.744 1.695.575-1.755.671 1.727.663-1.727.586 1.755.739-1.695.491 1.782.83-1.652.396 1.803.926-1.603.286 1.83 1.032-1.546.154 1.84 1.146-1.462v1.848l1.27-1.365-.16 1.845 1.385-1.245-.345 1.813 1.51-1.087-.55 1.763 1.629-.903-.768 1.679 1.735-.688-.987 1.568 1.814-.455-1.193 1.425 1.86-.214-1.369 1.254 1.87.03-1.521 1.08 1.86.236-1.631.908 1.821.433-1.714.746 1.774.597-1.776.657 1.706.81-1.83.493 1.62.96-1.86.32 1.523 1.111-1.888.149 1.415 1.243-1.9-.028 1.289 1.375-1.882-.21 1.15 1.488-1.857-.378 1.01 1.584-1.81-.544.84 1.667-1.75-.717.689 1.744-1.669-.874.511 1.799-1.581-1.028.336 1.839-1.476-1.17.16 1.86-1.352-1.31-.03 1.868-1.215-1.428-.216 1.85-1.067-1.54-.4 1.828-.91-1.639-.572 1.78-.747-1.717-.741 1.717-.578-1.78-.911 1.639-.401-1.828-1.07 1.54-.207-1.85-1.217 1.428-.029-1.869-1.352 1.311.155-1.87-1.474 1.178.337-1.838-1.582 1.026.516-1.798-1.675.874.687-1.742-1.751.714.849-1.674-1.812.551 1.01-1.581-1.855.374 1.15-1.484-1.882.21 1.287-1.376-1.893.029 1.412-1.245-1.889-.148 1.524-1.11-1.866-.32 1.623-.96-1.827-.494 1.705-.811z"/><path id="path47277" fill="#fcfcfa" d="m34.633 32.504c0 3.602-2.906 6.517-6.492 6.517-3.584 0-6.49-2.915-6.49-6.517 0-3.596 2.906-6.513 6.49-6.513 3.586 0 6.492 2.917 6.492 6.513"/><path id="path47279" fill="#3f3438" d="m33.619 32.504c0 2.476-1.998 4.481-4.465 4.481-2.461 0-4.461-2.01-4.461-4.481 0-2.474 2-4.48 4.461-4.48 2.467 0 4.465 2.01 4.465 4.48"/><ellipse id="ellipse47281" cx="14.845" cy="32.504" fill="#fcfcfa" rx="5.41" ry="5.43"/><g id="g47289" fill="#3f3438"><ellipse id="ellipse47283" cx="15.858" cy="32.504" rx="3.72" ry="3.734"/><path id="path47285" d="m36.32 16.912c-5.478-.146-8.747 1.894-10.291 6.01-.221.588.706.833.982.271 1.275-2.588 3.475-5.567 9.307-5.252 0 0 .001 0 .002 0 .635 0 .635-1.025 0-1.025"/><path id="path47287" d="m17.842 24.615c-3.768-3.925-7.543-4.761-11.582-2.933-.578.262-.097 1.082.499.879 2.758-.941 6.448-1.514 10.346 2.778 0 0 .001 0 .002 0 .45.444 1.184-.28.735-.724"/></g></symbol><symbol id="ic_translate_24px" viewBox="0 0 24 24"><path id="path18495" d="M12.87 15.07l-2.54-2.51.03-.03A17.52 17.52 0 0 0 14.07 6H17V4h-7V2H8v2H1v1.99h11.17C11.5 7.92 10.44 9.75 9 11.35 8.07 10.32 7.3 9.19 6.69 8h-2c.73 1.63 1.73 3.17 2.98 4.56l-5.09 5.02L4 19l5-5 3.11 3.11.76-2.04zM18.5 10h-2L12 22h2l1.12-3h4.75L21 22h2l-4.5-12zm-2.62 7l1.62-4.33L19.12 17h-3.24z"/></symbol><symbol id="translation" viewBox="0 0 20 20"><title id="title5891">translation</title><path id="path5893" d="M11 7H9.49c-.63 0-1.25.3-1.59.7L7 5H4.13l-2.39 7h1.69l.74-2H7v4H2c-1.1 0-2-.9-2-2V5c0-1.1.9-2 2-2h7c1.1 0 2 .9 2 2v2zM6.51 9H4.49l1-2.93zM10 8h7c1.1 0 2 .9 2 2v7c0 1.1-.9 2-2 2h-7c-1.1 0-2-.9-2-2v-7c0-1.1.9-2 2-2zm7.25 5v-1.08h-3.17V9.75h-1.16v2.17H9.75V13h1.28c.11.85.56 1.85 1.28 2.62-.87.36-1.89.62-2.31.62-.01.02.22.97.2 1.46.84 0 2.21-.5 3.28-1.15 1.09.65 2.48 1.15 3.34 1.15-.02-.49.2-1.44.2-1.46-.43 0-1.49-.27-2.38-.63.7-.77 1.14-1.77 1.25-2.61h1.36zm-3.81 1.93c-.5-.46-.85-1.13-1.01-1.93h2.09c-.17.8-.51 1.47-1 1.93l-.04.03s-.03-.02-.04-.03z"/></symbol><linearGradient id="linearGradient1045" x1="96.273" x2="61.135" y1="250.437" y2="206.958" gradientUnits="userSpaceOnUse" xlink:href="#linearGradient1043"/><linearGradient id="linearGradient947" x1="96.273" x2="61.135" y1="250.437" y2="206.958" gradientTransform="matrix(0.93888758,0,0,0.93888758,4.3010433,13.849343)" gradientUnits="userSpaceOnUse" xlink:href="#linearGradient1043"/></defs><metadata id="metadata133"/><g id="g1990" transform="translate(0,-156.24171)"><g id="g945" transform="matrix(1.0650902,0,0,1.0650902,-4.580999,-14.750801)"><rect id="rect1023" width="118.05" height="116.196" x="11.354" y="168.523" style="fill:url(#linearGradient947);fill-opacity:1;stroke:#272727;stroke-width:.61586463;stroke-linecap:round;stroke-miterlimit:4;stroke-dasharray:none;stroke-opacity:1;paint-order:fill markers stroke"/><circle id="path1005" cx="70.379" cy="226.621" r="31.134" style="fill:#3e8165;fill-opacity:1;stroke:#272727;stroke-width:.62700057;stroke-linecap:round;stroke-miterlimit:4;stroke-dasharray:none;stroke-opacity:1;paint-order:fill markers stroke"/><g id="g96610" transform="matrix(6.5907706,-14.001405,12.905976,6.9834184,7.2028338,117.14761)" style="fill:#fff;stroke:#000;stroke-width:.16499509;stroke-linecap:round;stroke-linejoin:round;stroke-miterlimit:4;stroke-dasharray:none;stroke-opacity:1"><title id="title96606">Buffer</title></g><g id="text872" aria-label="Translator" transform="matrix(1.9811891,0,0,1.9811891,-50.327674,-211.23345)" style="font-style:normal;font-variant:normal;font-weight:400;font-stretch:normal;font-size:9.82808399px;line-height:1.25;font-family:'StarJedi Special Edition';-inkscape-font-specification:'StarJedi Special Edition';letter-spacing:0;word-spacing:0;fill:#df5;fill-opacity:1;stroke:#000;stroke-width:1.32291782;stroke-miterlimit:4;stroke-dasharray:none;stroke-opacity:1"><g style="fill:#df5;fill-opacity:1;stroke:#000;stroke-width:.20000018;stroke-miterlimit:4;stroke-dasharray:none;stroke-opacity:1;paint-order:fill markers stroke" id="g114886"><path style="font-style:normal;font-variant:normal;font-weight:400;font-stretch:normal;font-family:'StarJedi Special Edition';-inkscape-font-specification:'StarJedi Special Edition';fill:#df5;fill-opacity:1;stroke:#000;stroke-width:.20000018;stroke-miterlimit:4;stroke-dasharray:none;stroke-opacity:1;paint-order:fill markers stroke" id="path114855" d="m 33.174631,217.43321 v 2.06351 h -2.197882 v 4.86606 h -2.255468 v -4.86606 h -2.197882 v -2.06351 z"/><path style="font-style:normal;font-variant:normal;font-weight:400;font-stretch:normal;font-family:'StarJedi Special Edition';-inkscape-font-specification:'StarJedi Special Edition';fill:#df5;fill-opacity:1;stroke:#000;stroke-width:.20000018;stroke-miterlimit:4;stroke-dasharray:none;stroke-opacity:1;paint-order:fill markers stroke" id="path114857" d="m 32.704342,224.36278 v -6.92957 h 4.510937 q 0.835003,0.072 1.372477,0.47509 0.537473,0.3983 0.787014,1.07015 0.191955,1.00296 0.0192,1.55003 -0.17276,0.54707 -0.604658,0.91179 -0.431898,0.36471 -0.537473,0.4175 -0.105575,0.048 -0.153564,0.15356 0.02879,0.18236 0.614255,0.28793 h 1.430063 v 2.06352 h -1.660408 q -1.497248,0.0288 -2.370642,-0.92139 l -0.902187,-0.95017 v 1.87156 z m 2.50501,-5.04841 v 1.17092 h 1.622018 q 0.691037,-0.23034 0.71983,-0.59506 -0.04799,-0.38391 -0.739026,-0.57586 z"/><path style="font-style:normal;font-variant:normal;font-weight:400;font-stretch:normal;font-family:'StarJedi Special Edition';-inkscape-font-specification:'StarJedi Special Edition';fill:#df5;fill-opacity:1;stroke:#000;stroke-width:.20000018;stroke-miterlimit:4;stroke-dasharray:none;stroke-opacity:1;paint-order:fill markers stroke" id="path114859" d="m 39.470748,224.36278 2.279462,-6.92957 H 45.191 l 2.317853,6.92957 h -2.620182 l -0.436697,-1.24771 h -2.058715 l -0.436697,1.24771 z m 4.007055,-5.39393 -0.993366,2.74495 h 1.90995 z"/><path style="font-style:normal;font-variant:normal;font-weight:400;font-stretch:normal;font-family:'StarJedi Special Edition';-inkscape-font-specification:'StarJedi Special Edition';fill:#df5;fill-opacity:1;stroke:#000;stroke-width:.20000018;stroke-miterlimit:4;stroke-dasharray:none;stroke-opacity:1;paint-order:fill markers stroke" id="path114861" d="m 47.412875,224.36278 v -6.92957 q 3.22484,0.24954 4.318982,2.59139 v -2.59139 h 2.255469 v 6.92957 h -2.255469 q -0.364714,-1.59323 -2.063514,-2.59139 v 2.59139 z"/><path style="font-style:normal;font-variant:normal;font-weight:400;font-stretch:normal;font-family:'StarJedi Special Edition';-inkscape-font-specification:'StarJedi Special Edition';fill:#df5;fill-opacity:1;stroke:#000;stroke-width:.20000018;stroke-miterlimit:4;stroke-dasharray:none;stroke-opacity:1;paint-order:fill markers stroke" id="path114863" d="m 59.726775,219.49672 h -1.689202 q -1.233309,-0.0384 -0.364714,0.68144 1.554834,1.36288 1.52604,2.64898 -0.02879,1.2861 -1.52604,1.53564 h -3.685531 v -2.06352 h 1.458856 q 1.35808,0.0384 0.345518,-0.75822 -1.670006,-1.53564 -1.420465,-2.82173 0.249541,-1.2861 1.574029,-1.2861 h 3.781509 z"/><path style="font-style:normal;font-variant:normal;font-weight:400;font-stretch:normal;font-family:'StarJedi Special Edition';-inkscape-font-specification:'StarJedi Special Edition';fill:#df5;fill-opacity:1;stroke:#000;stroke-width:.20000018;stroke-miterlimit:4;stroke-dasharray:none;stroke-opacity:1;paint-order:fill markers stroke" id="path114865" d="m 59.721976,224.36278 v -6.92957 h 2.255469 v 4.86605 h 3.752715 v 2.06352 z"/><path style="font-style:normal;font-variant:normal;font-weight:400;font-stretch:normal;font-family:'StarJedi Special Edition';-inkscape-font-specification:'StarJedi Special Edition';fill:#df5;fill-opacity:1;stroke:#000;stroke-width:.20000018;stroke-miterlimit:4;stroke-dasharray:none;stroke-opacity:1;paint-order:fill markers stroke" id="path114867" d="m 65.34625,224.36278 2.279463,-6.92957 h 3.440789 l 2.317854,6.92957 h -2.620183 l -0.436697,-1.24771 h -2.058714 l -0.436698,1.24771 z m 4.007056,-5.39393 -0.993366,2.74495 h 1.90995 z"/><path style="font-style:normal;font-variant:normal;font-weight:400;font-stretch:normal;font-family:'StarJedi Special Edition';-inkscape-font-specification:'StarJedi Special Edition';fill:#df5;fill-opacity:1;stroke:#000;stroke-width:.20000018;stroke-miterlimit:4;stroke-dasharray:none;stroke-opacity:1;paint-order:fill markers stroke" id="path114869" d="m 79.60369,217.43321 v 2.06351 h -2.197882 v 4.86606 H 75.15034 v -4.86606 h -2.197882 v -2.06351 z"/><path style="font-style:normal;font-variant:normal;font-weight:400;font-stretch:normal;font-family:'StarJedi Special Edition';-inkscape-font-specification:'StarJedi Special Edition';fill:#df5;fill-opacity:1;stroke:#000;stroke-width:.20000018;stroke-miterlimit:4;stroke-dasharray:none;stroke-opacity:1;paint-order:fill markers stroke" id="path114871" d="m 87.560216,220.93639 q 0,1.13733 -0.475088,1.93874 -0.475088,0.80141 -1.377276,1.20451 -0.897388,0.40311 -2.145094,0.40311 -1.247706,0 -2.145095,-0.40311 -0.892589,-0.4079 -1.353281,-1.19971 -0.460691,-0.79662 -0.460691,-1.94354 0,-0.8686 0.263938,-1.52605 0.263938,-0.66224 0.772618,-1.11333 0.50868,-0.4511 1.247706,-0.68144 0.739025,-0.23515 1.674805,-0.23515 1.242907,0 2.145094,0.41271 0.902188,0.4079 1.377276,1.20931 0.475088,0.79661 0.475088,1.93395 z m -5.494705,0.0192 q 0,0.66704 0.29753,1.16133 0.302328,0.49428 1.18532,0.49428 0.68144,0 1.017361,-0.25914 0.340719,-0.25914 0.4223,-0.59026 0.08638,-0.33592 0.115173,-0.80621 -0.02879,-0.66704 -0.321524,-1.16133 -0.292731,-0.49908 -1.23331,-0.49908 -1.48285,0 -1.48285,1.66041 z"/><path style="font-style:normal;font-variant:normal;font-weight:400;font-stretch:normal;font-family:'StarJedi Special Edition';-inkscape-font-specification:'StarJedi Special Edition';fill:#df5;fill-opacity:1;stroke:#000;stroke-width:.20000018;stroke-miterlimit:4;stroke-dasharray:none;stroke-opacity:1;paint-order:fill markers stroke" id="path114873" d="m 87.891337,224.36278 v -6.92957 h 4.510937 q 0.835003,0.072 1.372477,0.47509 0.537473,0.3983 0.787014,1.07015 0.191955,1.00296 0.0192,1.55003 -0.17276,0.54707 -0.604658,0.91179 -0.431898,0.36471 -0.537473,0.4175 -0.105575,0.048 -0.153564,0.15356 0.02879,0.18236 0.614255,0.28793 h 1.430063 v 2.06352 H 93.66918 q -1.497248,0.0288 -2.370642,-0.92139 l -0.902187,-0.95017 v 1.87156 z m 2.50501,-5.04841 v 1.17092 h 1.622018 q 0.691037,-0.23034 0.71983,-0.59506 -0.04799,-0.38391 -0.739026,-0.57586 z"/></g></g><text id="text114853" x="57.848" y="216.399" xml:space="preserve" style="font-style:normal;font-weight:400;font-size:20.96760368px;line-height:1.25;font-family:sans-serif;letter-spacing:0;word-spacing:0;fill:#eef4d7;fill-opacity:1;stroke:#000;stroke-width:.1980366;stroke-miterlimit:4;stroke-dasharray:none;stroke-opacity:1"><tspan style="font-style:normal;font-variant:normal;font-weight:400;font-stretch:normal;font-family:'Star Jedi';-inkscape-font-specification:'Star Jedi';fill:#eef4d7;fill-opacity:1;stroke:#000;stroke-width:.1980366;stroke-miterlimit:4;stroke-dasharray:none;stroke-opacity:1" id="tspan114851" x="57.848" y="216.399">Fz</tspan></text><use style="fill:#acf;stroke:none" id="use129843" width="100%" height="100%" x="0" y="0" transform="matrix(0.14508239,0,0,0.14508239,60.678986,235.345)" xlink:href="#translation"/></g></g></svg>