<svg xmlns="http://www.w3.org/2000/svg" xmlns:osb="http://www.openswatchbook.org/uri/2009/osb" xmlns:svg="http://www.w3.org/2000/svg" id="svg136" width="210mm" height="297mm" version="1.1" viewBox="0 0 210 297"><title id="title96506">Fz Machine Translator</title><defs id="defs130"><linearGradient id="linearGradient95968" osb:paint="solid"><stop id="stop95966" offset="0" style="stop-color:#000;stop-opacity:1"/></linearGradient><linearGradient id="linearGradient95938" osb:paint="solid"><stop id="stop95936" offset="0" style="stop-color:#000;stop-opacity:1"/></linearGradient><linearGradient id="linearGradient95928" osb:paint="gradient"><stop id="stop95924" offset="0" style="stop-color:#000;stop-opacity:1"/><stop id="stop95926" offset="1" style="stop-color:#000;stop-opacity:0"/></linearGradient><linearGradient id="linearGradient95895-7" osb:paint="gradient"><stop id="stop95891" offset="0" style="stop-color:#82c5fa;stop-opacity:1"/><stop id="stop95893" offset="1" style="stop-color:#000;stop-opacity:0"/></linearGradient><marker style="overflow:visible" id="Arrow1Lstart" orient="auto" refX="0" refY="0"><path style="fill-rule:evenodd;stroke:#000;stroke-width:1pt" id="path93315" d="M 0.0,0.0 L 5.0,-5.0 L -12.5,0.0 L 5.0,5.0 L 0.0,0.0 z" transform="scale(0.8) translate(12.5,0)"/></marker><filter id="filter3713" style="color-interpolation-filters:sRGB"><feBlend id="feBlend3715" in2="BackgroundImage" mode="darken"/></filter><filter id="filter96868" style="color-interpolation-filters:sRGB"><feColorMatrix id="feColorMatrix96866" values="1 0 0 0 0 0 1 0 0 0 0 0 1 0 0 0 0 0 1000 -500"/></filter><filter id="filter97081" width="1.5" height="1.5" x="-.25" y="-.25" style="color-interpolation-filters:sRGB"><feGaussianBlur id="feGaussianBlur97069" in="SourceAlpha" result="result1" stdDeviation="5"/><feComposite id="feComposite97071" in2="result1" k1="-1" k2="3.2" k4="-2" operator="arithmetic" result="result3"/><feColorMatrix id="feColorMatrix97073" result="result2" values="1 0 0 0 0 0 1 0 0 0 0 0 1 0 0 0 0 0 10 0"/><feComposite id="feComposite97075" in="SourceGraphic" in2="result2" operator="out" result="fbSourceGraphic"/><feBlend id="feBlend97077" in2="fbSourceGraphic" mode="multiply" result="result91"/><feBlend id="feBlend97079" in2="result91" mode="screen"/></filter></defs><metadata id="metadata133"/><g id="g1990"><g id="g96755" transform="matrix(-8.6661271,0,0,-8.5230564,276.96846,317.6294)" style="fill:#008066;fill-opacity:.76999996;stroke:#000;stroke-width:.22921681;stroke-linecap:round;stroke-linejoin:round;stroke-opacity:1;paint-order:normal;filter:url(#filter96868)"><circle id="circle92421" cx="19.844" cy="19.844" r="10.583" style="opacity:1;fill:#008066;fill-opacity:.76999996;stroke:#000;stroke-width:.46926484;stroke-linecap:round;stroke-linejoin:round;stroke-miterlimit:4;stroke-dasharray:none;stroke-opacity:1;paint-order:normal;filter:url(#filter97081)"/><path style="fill:#008066;fill-opacity:.76999996;stroke:#000;stroke-width:.46926484;stroke-linecap:round;stroke-linejoin:round;stroke-miterlimit:4;stroke-dasharray:none;stroke-opacity:1;paint-order:normal" id="path92423" d="M 19.84375,30.427083 H 30.427083"/></g><ellipse style="fill:#000;stroke:none;stroke-width:.02601581;stroke-miterlimit:4;stroke-dasharray:none" id="circle94191" cx="107.037" cy="105.592" rx="6.832" ry="6.973" transform="matrix(0.98335766,0.18168027,-0.18448693,0.98283497,0,0)"/><ellipse style="fill:#000;stroke:none;stroke-width:.02601581;stroke-miterlimit:4;stroke-dasharray:none" id="circle94193" cx="123.263" cy="113.436" rx="4.27" ry="4.358" transform="matrix(0.98335766,0.18168027,-0.18448693,0.98283497,0,0)"/><ellipse style="fill:#000;stroke:none;stroke-width:.02601581;stroke-miterlimit:4;stroke-dasharray:none" id="circle94195" cx="124.117" cy="93.388" rx="10.248" ry="10.46" transform="matrix(0.98335766,0.18168027,-0.18448693,0.98283497,0,0)"/><path style="fill:#000;stroke:#000;stroke-width:1.20000005;stroke-miterlimit:4;stroke-dasharray:none;stroke-opacity:1;paint-order:fill markers stroke" id="path92459-9" d="m 76.688305,199.16691 3.282022,3.27781 1.109241,-1.11289 -3.282022,-3.27781 z m 6.655444,-6.67732 -1.109241,1.11289 9.846068,9.83345 1.109241,-1.11289 z m -3.882342,3.8951 6.564045,6.55563 1.109241,-1.11288 -6.564045,-6.55564 z"/><g style="stroke:#000;stroke-width:.19201966;stroke-opacity:1" id="g243061" transform="matrix(11.233076,-0.59029303,0.62993245,11.9874,-859.2472,-928.52985)"><g style="fill:#fff;stroke:#000;stroke-width:.16453224;stroke-linecap:round;stroke-linejoin:round;stroke-miterlimit:4;stroke-dasharray:none;stroke-opacity:1" id="use9718" transform="matrix(-0.32922784,0.57499635,-0.56345686,-0.32262061,88.506866,93.356658)"><title id="title94398">Buffer</title><path style="fill:#fff;stroke:#000;stroke-width:.16453224;stroke-linecap:round;stroke-linejoin:round;stroke-miterlimit:4;stroke-dasharray:none;stroke-opacity:1" id="path94400" d="M 6.6145833,7.9375 19.84375,13.229167 6.6145833,18.520833 v -5.291666 z"/></g></g><g style="opacity:.97399998;fill:#fff;fill-opacity:1;stroke:none;stroke-width:.15696596;stroke-miterlimit:4;stroke-dasharray:none;paint-order:stroke fill markers" id="use250317" transform="matrix(4.9731694,0,0,5.2231895,91.488907,208.79253)"><title id="title94217">translation</title><path style="fill:#fff;fill-opacity:1;stroke-width:.15696596;stroke-miterlimit:4;stroke-dasharray:none;paint-order:stroke fill markers" id="path94219" d="M 2.9104167,1.8520833 H 2.5108958 c -0.1666875,0 -0.3307291,0.079375 -0.4206875,0.1852084 L 1.8520833,1.3229167 H 1.0927292 L 0.460375,3.175 H 0.90752083 L 1.1033125,2.6458333 H 1.8520833 V 3.7041667 H 0.52916667 C 0.238125,3.7041667 0,3.4660417 0,3.175 V 1.3229167 C 0,1.031875 0.238125,0.79375 0.52916667,0.79375 H 2.38125 c 0.2910417,0 0.5291667,0.238125 0.5291667,0.5291667 z M 1.7224375,2.38125 H 1.1879792 L 1.4525625,1.6060208 Z M 2.6458333,2.1166667 h 1.8520834 c 0.2910416,0 4.0256099,-0.1095979 3.7808611,0.06476 l -3.2516945,2.31649 C 4.7823344,4.6722745 4.7889583,5.0270833 4.4979167,5.0270833 H 2.6458333 c -0.2910416,0 -0.5291666,-0.238125 -0.5291666,-0.5291666 V 2.6458333 c 0,-0.2910416 0.238125,-0.5291666 0.5291666,-0.5291666 z m 1.9182292,1.3229166 v -0.28575 H 3.7253333 V 2.5796875 H 3.4184167 V 3.1538333 H 2.5796875 v 0.28575 h 0.3386667 c 0.029104,0.2248959 0.1481666,0.4894792 0.3386666,0.6932084 -0.2301875,0.09525 -0.5000625,0.1640416 -0.6111875,0.1640416 -0.00265,0.00529 0.058208,0.2566459 0.052917,0.3862917 0.22225,0 0.5847292,-0.1322917 0.8678333,-0.3042708 C 3.8549792,4.5508333 4.22275,4.683125 4.4502917,4.683125 4.445,4.5534792 4.5032083,4.302125 4.5032083,4.2968333 4.3894375,4.2968333 4.1089792,4.2253958 3.8735,4.1301458 4.0587083,3.9264167 4.175125,3.6618333 4.2042292,3.4395833 Z M 3.556,3.9502292 C 3.4237083,3.8285208 3.3311042,3.65125 3.2887708,3.4395833 H 3.84175 C 3.7967708,3.65125 3.7068125,3.8285208 3.5771667,3.9502292 l -0.010583,0.00794 c 0,0 -0.00794,-0.00529 -0.010584,-0.00794 z"/></g><g style="fill:#fff;stroke:#000;stroke-width:.16499509;stroke-linecap:round;stroke-linejoin:round;stroke-miterlimit:4;stroke-dasharray:none;stroke-opacity:1" id="g96610" transform="matrix(3.3266742,-7.0671722,6.5142577,3.5248622,29.038367,163.22564)"><title id="title96606">Buffer</title><path style="fill:#fff;stroke:#000;stroke-width:.16499509;stroke-linecap:round;stroke-linejoin:round;stroke-miterlimit:4;stroke-dasharray:none;stroke-opacity:1" id="path96608" d="M 6.6145833,7.9375 19.84375,13.229167 6.6145833,18.520833 v -5.291666 z"/></g><path id="path96604" d="m 133.26262,116.1309 3.33967,3.3354 1.12873,-1.13244 -3.33967,-3.33539 z m 6.77235,-6.7946 -1.12873,1.13244 10.01901,10.00617 1.12872,-1.13244 z m -3.95054,3.96352 6.67934,6.67078 1.12872,-1.13244 -6.67933,-6.67078 z" style="fill:#000;stroke:#000;stroke-width:1.20000005;stroke-miterlimit:4;stroke-dasharray:none;stroke-opacity:1;paint-order:fill markers stroke"/></g></svg>